<svg width="1977" height="1866" viewBox="0 0 1977 1866" fill="none" xmlns="http://www.w3.org/2000/svg">
<path fill-rule="evenodd" clip-rule="evenodd" d="M747.751 1580.16L582.047 1469.19C562.977 1456.42 556.748 1431.66 566.663 1411.63L566.634 1411.61L735.373 1069.61C746.43 1047.2 773.558 1038 795.964 1049.06C811.923 1056.93 821.18 1072.96 821.193 1089.63H821.299V1544.63C821.299 1569.68 800.993 1589.99 775.945 1589.99C765.289 1589.99 755.493 1586.31 747.751 1580.16ZM775.945 1544.63L607.205 1431.63L775.945 1089.63V1544.63Z" fill="#BDBD0D"/>
<path fill-rule="evenodd" clip-rule="evenodd" d="M775.945 1544.63L607.205 1431.63L775.945 1089.63V1544.63Z" fill="#FFFFCC"/>
<path fill-rule="evenodd" clip-rule="evenodd" d="M963.015 571.633V596.411V1616.19V1639.69C963.015 1664.74 942.709 1685.04 917.661 1685.04C907.001 1685.04 897.201 1681.37 889.458 1675.21L822.069 1630.05C809.063 1621.34 802.03 1607.05 802.017 1592.49H801.872V726.35V701.572C801.872 692.685 804.43 684.397 808.847 677.399L877.799 550.196C889.638 528.181 917.083 519.932 939.098 531.771C954.281 539.936 962.915 555.524 962.929 571.633H963.015ZM917.661 571.633V596.411V1616.19V1639.69L847.226 1592.49V726.35V701.572L917.661 571.633Z" fill="#BDBD0D"/>
<path fill-rule="evenodd" clip-rule="evenodd" d="M917.661 571.633V596.411V1616.19V1639.69L847.227 1592.49V726.35V701.572L917.661 571.633Z" fill="#FFFFCC"/>
<path fill-rule="evenodd" clip-rule="evenodd" d="M960.585 461.117H995.8C1020.85 461.117 1041.15 481.423 1041.15 506.472V1692.03C1041.15 1717.08 1020.85 1737.39 995.8 1737.39C985.139 1737.39 975.34 1733.71 967.597 1727.55L935.428 1705.99C922.422 1697.28 915.389 1682.99 915.376 1668.43H915.231V506.472C915.231 481.423 935.537 461.117 960.585 461.117ZM960.585 506.472H995.8V1692.03L960.585 1668.43V506.472Z" fill="#BDBD0D"/>
<path fill-rule="evenodd" clip-rule="evenodd" d="M960.585 506.472H995.8V1692.03L960.585 1668.43V506.472Z" fill="#FFFFCC"/>
<path fill-rule="evenodd" clip-rule="evenodd" d="M823.536 1033.01L614.188 1425.45C602.447 1447.46 575.081 1455.79 553.066 1444.05C551.676 1443.31 550.341 1442.51 549.061 1441.65L548.992 1441.75L471.202 1389.19C451.157 1375.67 445.373 1348.92 457.631 1328.42L744.337 805.719C756.372 783.802 783.896 775.79 805.813 787.825C821.768 796.586 830.351 813.555 829.199 830.594L829.172 1011.15C829.172 1019.08 827.126 1026.53 823.536 1033.01ZM783.995 1011.15L574.326 1404.19L496.536 1351.63L784.022 827.51L783.995 1011.15Z" fill="#BDBD0D"/>
<path fill-rule="evenodd" clip-rule="evenodd" d="M783.995 1011.15L574.326 1404.19L496.536 1351.63L784.022 827.51L783.995 1011.15Z" fill="#FFFFCC"/>
<path fill-rule="evenodd" clip-rule="evenodd" d="M1201.24 1544.63L1369.98 1431.63L1201.24 1089.63V1544.63ZM1395.14 1469.19L1229.44 1580.16C1221.7 1586.31 1211.9 1589.99 1201.24 1589.99C1176.2 1589.99 1155.89 1569.68 1155.89 1544.63V1089.63H1156C1156.01 1072.96 1165.26 1056.93 1181.22 1049.06C1203.63 1038 1230.76 1047.2 1241.81 1069.61L1410.55 1411.61L1410.52 1411.63C1420.44 1431.66 1414.21 1456.42 1395.14 1469.19Z" fill="#BDBD0D"/>
<path fill-rule="evenodd" clip-rule="evenodd" d="M1201.24 1544.63L1369.98 1431.63L1201.24 1089.63V1544.63Z" fill="#FFFFCC"/>
<path fill-rule="evenodd" clip-rule="evenodd" d="M1014.17 596.411V571.633H1014.26C1014.27 555.524 1022.91 539.936 1038.09 531.771C1060.11 519.932 1087.55 528.181 1099.39 550.196L1168.34 677.4C1172.76 684.398 1175.32 692.686 1175.32 701.572V726.35V1592.49H1175.17C1175.16 1607.05 1168.13 1621.34 1155.12 1630.05L1087.73 1675.21C1079.99 1681.37 1070.19 1685.04 1059.53 1685.04C1034.48 1685.04 1014.17 1664.74 1014.17 1639.69V1616.19V596.411ZM1059.53 571.633V596.411V1616.19V1639.69L1129.96 1592.49V726.35V701.572L1059.53 571.633Z" fill="#BDBD0D"/>
<path fill-rule="evenodd" clip-rule="evenodd" d="M1059.53 571.633V596.411V1616.19V1639.69L1129.96 1592.49V726.35V701.572L1059.53 571.633Z" fill="#FFFFCC"/>
<path fill-rule="evenodd" clip-rule="evenodd" d="M981.39 461.117H1016.6C1041.65 461.117 1061.96 481.423 1061.96 506.472V1668.43H1061.81C1061.8 1682.99 1054.77 1697.28 1041.76 1705.99L1009.59 1727.55C1001.85 1733.71 992.051 1737.39 981.39 1737.39C956.342 1737.39 936.036 1717.08 936.036 1692.03V506.472C936.036 481.423 956.342 461.117 981.39 461.117ZM1016.6 506.472H981.39V1692.03L1016.6 1668.43V506.472Z" fill="#BDBD0D"/>
<path fill-rule="evenodd" clip-rule="evenodd" d="M1016.6 506.472H981.39V1692.03L1016.6 1668.43V506.472Z" fill="#FFFFCC"/>
<path fill-rule="evenodd" clip-rule="evenodd" d="M1035.48 434.991L1056.29 472.831C1060.09 479.757 1061.89 487.243 1061.88 494.622H1061.96V506.472H1061.78L1061.76 1801.19C1061.76 1816.83 1053.81 1830.62 1041.73 1838.73L1041.74 1838.75L1020.94 1852.69L1013.73 1857.52C997.776 1868.2 977.477 1867.38 962.635 1856.99L956.215 1852.69L935.41 1838.75C921.895 1829.69 914.831 1814.62 915.39 1799.48L915.408 506.472H915.231V494.622C915.231 485.715 917.801 477.408 922.237 470.4L941.705 434.99L948.91 421.886C960.944 399.969 988.469 391.957 1010.39 403.992C1018.36 408.372 1024.5 414.806 1028.49 422.273L1035.48 434.991ZM995.8 456.782L1016.6 494.622V506.472L1016.59 1801.19L995.782 1815.13L988.577 1819.96L981.372 1815.13L960.568 1801.19L960.585 506.472V494.622L981.39 456.782L988.595 443.677L995.8 456.782Z" fill="#BDBD0D"/>
<path fill-rule="evenodd" clip-rule="evenodd" d="M995.8 456.782L1016.6 494.623V506.472L1016.59 1801.19L995.782 1815.13L988.577 1819.96L981.372 1815.13L960.568 1801.19L960.586 506.472V494.623L981.39 456.782L988.595 443.677L995.8 456.782Z" fill="#FFFFCC"/>
<path fill-rule="evenodd" clip-rule="evenodd" d="M1200.58 1012.06L1410.25 1405.1L1488.04 1352.54L1200.55 828.42L1200.58 1012.06ZM1370.38 1426.36L1161.04 1033.92C1157.45 1027.44 1155.4 1019.99 1155.4 1012.06L1155.38 831.504C1154.22 814.465 1162.81 797.496 1178.76 788.735C1200.68 776.7 1228.2 784.712 1240.24 806.629L1526.94 1329.33C1539.2 1349.83 1533.41 1376.58 1513.37 1390.1L1435.58 1442.66L1435.51 1442.56C1434.23 1443.42 1432.9 1444.22 1431.51 1444.96C1409.49 1456.7 1382.13 1448.37 1370.38 1426.36Z" fill="#BDBD0D"/>
<path fill-rule="evenodd" clip-rule="evenodd" d="M1200.58 1012.06L1410.25 1405.1L1488.04 1352.54L1200.55 828.42L1200.58 1012.06Z" fill="#FFFFCC"/>
<path fill-rule="evenodd" clip-rule="evenodd" d="M889.297 181.864L988.593 0.960938L1089.94 185.607L1230.6 442.058L1315.64 597.096L1596 1108.22C1634.51 1178.39 1697.46 1285.17 1762.74 1378.81C1807.94 1443.63 1853.57 1501.32 1891.39 1533.99L1976.34 1607.38L1864.1 1613.36C1684.15 1622.94 1634.56 1546.41 1566.64 1441.6C1556.72 1426.29 1546.35 1410.28 1534.98 1393.9L1533.35 1391.56L1532.5 1390.01L1374 1101.05L1351.42 1059.9L1351.43 1059.89L1202.29 788.007V788.009L1117.25 632.97L988.593 398.401L859.933 632.97L774.894 788.012V787.995L623.199 1064.55L623.201 1064.55L603.181 1101.05L444.677 1390.01L443.827 1391.56L442.197 1393.9C430.829 1410.28 420.454 1426.29 410.534 1441.6C342.615 1546.41 293.02 1622.94 113.07 1613.36L0.829102 1607.38L85.7867 1533.99C123.927 1501.04 169.571 1443.41 214.607 1378.81C279.259 1286.08 342.356 1178.95 381.179 1108.22L661.537 597.096L746.577 442.06L888.42 183.464L889.297 181.864ZM115.373 1568.18C214.505 1482.54 353.918 1251.98 420.864 1130.01L701.222 618.888L928.105 205.255V205.26L928.108 205.255V205.373L988.593 95.1025L1049.08 205.376V205.255L1275.96 618.888L1556.31 1130.01C1623.26 1251.98 1762.67 1482.54 1861.8 1568.18C1681.75 1577.77 1652.65 1484.12 1572.18 1368.21L1413.68 1079.26L1413.68 1079.26L1217.33 721.285L1215.47 717.891L1156.94 611.177V611.179L988.593 304.258L820.248 611.179V611.168L761.71 717.891L759.848 721.285L563.495 1079.26L563.496 1079.26L404.992 1368.21C324.527 1484.12 295.423 1577.77 115.373 1568.18Z" fill="#BDBD0D"/>
<path fill-rule="evenodd" clip-rule="evenodd" d="M928.105 205.26L928.108 205.255V205.373L988.593 95.1025L1049.08 205.376V205.255L1049.08 205.257V205.255L1275.96 618.888V618.888L1556.31 1130.01C1623.26 1251.98 1762.67 1482.54 1861.8 1568.18C1681.75 1577.77 1652.65 1484.12 1572.18 1368.21L1413.68 1079.26L1413.68 1079.26L1217.33 721.285L1215.47 717.89L1156.94 611.177V611.179L988.593 304.258H988.592L820.248 611.179V611.168L761.71 717.89L759.848 721.285L563.495 1079.26L563.496 1079.26L404.992 1368.21C324.527 1484.12 295.423 1577.77 115.373 1568.18C214.505 1482.54 353.918 1251.98 420.864 1130.01L701.222 618.888V618.888L928.105 205.255V205.26Z" fill="#FFFFCC"/>
</svg>
