<svg width="6910" height="3271" viewBox="0 0 6910 3271" fill="none" xmlns="http://www.w3.org/2000/svg">
<path fill-rule="evenodd" clip-rule="evenodd" d="M3092.75 1579.2L2927.05 1468.23C2907.98 1455.46 2901.75 1430.69 2911.66 1410.67L2911.63 1410.65L3080.37 1068.65C3091.43 1046.24 3118.56 1037.04 3140.96 1048.1C3156.92 1055.97 3166.18 1072 3166.19 1088.67H3166.3V1543.67C3166.3 1568.72 3145.99 1589.03 3120.94 1589.03C3110.29 1589.03 3100.49 1585.35 3092.75 1579.2ZM3120.94 1543.67L2952.21 1430.67L3120.94 1088.67V1543.67Z" fill="#BDBD0D"/>
<path fill-rule="evenodd" clip-rule="evenodd" d="M3120.94 1543.67L2952.21 1430.67L3120.94 1088.67V1543.67Z" fill="#FFFFCC"/>
<path fill-rule="evenodd" clip-rule="evenodd" d="M3308.02 570.672V595.45V1615.23V1638.73C3308.02 1663.78 3287.71 1684.08 3262.66 1684.08C3252 1684.08 3242.2 1680.4 3234.46 1674.25L3167.07 1629.09C3154.06 1620.38 3147.03 1606.09 3147.02 1591.53H3146.87V725.389V700.611C3146.87 691.724 3149.43 683.436 3153.85 676.438L3222.8 549.235C3234.64 527.22 3262.08 518.971 3284.1 530.81C3299.28 538.975 3307.91 554.563 3307.93 570.672H3308.02ZM3262.66 570.672V595.45V1615.23V1638.73L3192.23 1591.53V725.389V700.611L3262.66 570.672Z" fill="#BDBD0D"/>
<path fill-rule="evenodd" clip-rule="evenodd" d="M3262.66 570.672V595.45V1615.23V1638.73L3192.23 1591.53V725.389V700.611L3262.66 570.672Z" fill="#FFFFCC"/>
<path fill-rule="evenodd" clip-rule="evenodd" d="M3305.59 460.156H3340.8C3365.85 460.156 3386.15 480.462 3386.15 505.511V1691.07C3386.15 1716.12 3365.85 1736.42 3340.8 1736.42C3330.14 1736.42 3320.34 1732.74 3312.6 1726.59L3280.43 1705.03C3267.42 1696.32 3260.39 1682.03 3260.38 1667.47H3260.23V505.511C3260.23 480.462 3280.54 460.156 3305.59 460.156ZM3305.59 505.511H3340.8V1691.07L3305.59 1667.47V505.511Z" fill="#BDBD0D"/>
<path fill-rule="evenodd" clip-rule="evenodd" d="M3305.59 505.511H3340.8V1691.07L3305.59 1667.47V505.511Z" fill="#FFFFCC"/>
<path fill-rule="evenodd" clip-rule="evenodd" d="M3168.54 1032.05L2959.19 1424.49C2947.45 1446.5 2920.08 1454.83 2898.07 1443.09C2896.68 1442.35 2895.34 1441.55 2894.06 1440.69L2893.99 1440.79L2816.2 1388.23C2796.16 1374.71 2790.37 1347.96 2802.63 1327.46L3089.34 804.758C3101.37 782.841 3128.9 774.829 3150.81 786.864C3166.77 795.625 3175.35 812.594 3174.2 829.633L3174.17 1010.19C3174.17 1018.12 3172.13 1025.57 3168.54 1032.05ZM3129 1010.19L2919.33 1403.23L2841.54 1350.67L3129.02 826.549L3129 1010.19Z" fill="#BDBD0D"/>
<path fill-rule="evenodd" clip-rule="evenodd" d="M3129 1010.19L2919.33 1403.23L2841.54 1350.67L3129.02 826.549L3129 1010.19Z" fill="#FFFFCC"/>
<path fill-rule="evenodd" clip-rule="evenodd" d="M3546.24 1543.67L3714.98 1430.67L3546.24 1088.67V1543.67ZM3740.14 1468.23L3574.44 1579.2C3566.7 1585.35 3556.9 1589.03 3546.24 1589.03C3521.2 1589.03 3500.89 1568.72 3500.89 1543.67V1088.67H3501C3501.01 1072 3510.26 1055.97 3526.22 1048.1C3548.63 1037.04 3575.76 1046.24 3586.81 1068.65L3755.55 1410.65L3755.52 1410.67C3765.44 1430.69 3759.21 1455.46 3740.14 1468.23Z" fill="#BDBD0D"/>
<path fill-rule="evenodd" clip-rule="evenodd" d="M3546.24 1543.67L3714.98 1430.67L3546.24 1088.67V1543.67Z" fill="#FFFFCC"/>
<path fill-rule="evenodd" clip-rule="evenodd" d="M3359.17 595.45V570.672H3359.26C3359.27 554.563 3367.91 538.975 3383.09 530.81C3405.11 518.971 3432.55 527.22 3444.39 549.235L3513.34 676.439C3517.76 683.437 3520.32 691.725 3520.32 700.611V725.389V1591.53H3520.17C3520.16 1606.09 3513.13 1620.38 3500.12 1629.09L3432.73 1674.25C3424.99 1680.4 3415.19 1684.08 3404.53 1684.08C3379.48 1684.08 3359.17 1663.78 3359.17 1638.73V1615.23V595.45ZM3404.53 570.672V595.45V1615.23V1638.73L3474.96 1591.53V725.389V700.611L3404.53 570.672Z" fill="#BDBD0D"/>
<path fill-rule="evenodd" clip-rule="evenodd" d="M3404.53 570.672V595.45V1615.23V1638.73L3474.96 1591.53V725.389V700.611L3404.53 570.672Z" fill="#FFFFCC"/>
<path fill-rule="evenodd" clip-rule="evenodd" d="M3326.39 460.156H3361.6C3386.65 460.156 3406.96 480.462 3406.96 505.511V1667.47H3406.81C3406.8 1682.03 3399.77 1696.32 3386.76 1705.03L3354.59 1726.59C3346.85 1732.74 3337.05 1736.42 3326.39 1736.42C3301.34 1736.42 3281.04 1716.12 3281.04 1691.07V505.511C3281.04 480.462 3301.34 460.156 3326.39 460.156ZM3361.6 505.511H3326.39V1691.07L3361.6 1667.47V505.511Z" fill="#BDBD0D"/>
<path fill-rule="evenodd" clip-rule="evenodd" d="M3361.6 505.511H3326.39V1691.07L3361.6 1667.47V505.511Z" fill="#FFFFCC"/>
<path fill-rule="evenodd" clip-rule="evenodd" d="M3380.48 434.03L3401.29 471.87C3405.09 478.796 3406.89 486.282 3406.88 493.662H3406.96V505.511H3406.78L3406.76 1800.23C3406.76 1815.87 3398.81 1829.66 3386.73 1837.76L3386.74 1837.79L3365.94 1851.73L3358.73 1856.56C3342.78 1867.24 3322.48 1866.42 3307.63 1856.03L3301.21 1851.73L3280.41 1837.79C3266.89 1828.73 3259.83 1813.66 3260.39 1798.51L3260.41 505.511H3260.23V493.662C3260.23 484.754 3262.8 476.447 3267.24 469.439L3286.71 434.029L3293.91 420.925C3305.94 399.008 3333.47 390.996 3355.39 403.031C3363.36 407.411 3369.5 413.845 3373.49 421.312L3380.48 434.03ZM3340.8 455.821L3361.6 493.662V505.511L3361.59 1800.23L3340.78 1814.17L3333.58 1819L3326.37 1814.17L3305.57 1800.23L3305.59 505.511V493.662L3326.39 455.821L3333.59 442.716L3340.8 455.821Z" fill="#BDBD0D"/>
<path fill-rule="evenodd" clip-rule="evenodd" d="M3340.8 455.821L3361.6 493.662V505.511L3361.59 1800.23L3340.78 1814.17L3333.58 1819L3326.37 1814.17L3305.57 1800.23L3305.59 505.511V493.662L3326.39 455.821L3333.59 442.716L3340.8 455.821Z" fill="#FFFFCC"/>
<path fill-rule="evenodd" clip-rule="evenodd" d="M3545.58 1011.1L3755.25 1404.14L3833.04 1351.58L3545.55 827.459L3545.58 1011.1ZM3715.38 1425.4L3506.04 1032.96C3502.45 1026.48 3500.4 1019.03 3500.4 1011.1L3500.38 830.543C3499.22 813.504 3507.81 796.535 3523.76 787.774C3545.68 775.74 3573.2 783.751 3585.24 805.668L3871.94 1328.37C3884.2 1348.87 3878.41 1375.62 3858.37 1389.14L3780.58 1441.7L3780.51 1441.6C3779.23 1442.46 3777.9 1443.26 3776.51 1444C3754.49 1455.74 3727.13 1447.41 3715.38 1425.4Z" fill="#BDBD0D"/>
<path fill-rule="evenodd" clip-rule="evenodd" d="M3545.58 1011.1L3755.25 1404.14L3833.04 1351.58L3545.55 827.459L3545.58 1011.1Z" fill="#FFFFCC"/>
<path fill-rule="evenodd" clip-rule="evenodd" d="M3234.3 180.903L3333.59 0L3434.94 184.646L3575.6 441.097L3660.64 596.135L3941 1107.26C3979.51 1177.42 4042.46 1284.21 4107.74 1377.85C4152.94 1442.67 4198.57 1500.36 4236.39 1533.03L4321.34 1606.42L4209.1 1612.4C4029.15 1621.98 3979.56 1545.45 3911.64 1440.64C3901.72 1425.33 3891.35 1409.32 3879.98 1392.94L3878.35 1390.59L3877.5 1389.04L3719 1100.09L3696.42 1058.93L3696.43 1058.93L3547.29 787.046V787.048L3462.25 632.009L3333.59 397.44L3204.93 632.009L3119.89 787.051V787.034L2968.2 1063.59L2968.2 1063.59L2948.18 1100.09L2789.68 1389.04L2788.83 1390.59L2787.2 1392.94C2775.83 1409.32 2765.45 1425.33 2755.53 1440.64C2687.61 1545.45 2638.02 1621.98 2458.07 1612.4L2345.83 1606.42L2430.79 1533.03C2468.93 1500.08 2514.57 1442.44 2559.61 1377.85C2624.26 1285.12 2687.36 1177.99 2726.18 1107.26L3006.54 596.135L3091.58 441.099L3233.42 182.503L3234.3 180.903ZM2460.37 1567.22C2559.5 1481.58 2698.92 1251.02 2765.86 1129.05L3046.22 617.927L3273.11 204.294V204.299L3273.11 204.294V204.412L3333.59 94.1416L3394.08 204.415V204.294L3620.96 617.927L3901.31 1129.05C3968.26 1251.02 4107.67 1481.58 4206.8 1567.22C4026.75 1576.81 3997.65 1483.16 3917.18 1367.25L3758.68 1078.3L3758.68 1078.3L3562.33 720.324L3560.47 716.93L3501.94 610.216V610.218L3333.59 303.297L3165.25 610.218V610.207L3106.71 716.93L3104.85 720.324L2908.49 1078.3L2908.5 1078.3L2749.99 1367.25C2669.53 1483.16 2640.42 1576.81 2460.37 1567.22Z" fill="#BDBD0D"/>
<path fill-rule="evenodd" clip-rule="evenodd" d="M3273.11 204.299L3273.11 204.294V204.412L3333.59 94.1416L3394.08 204.415V204.294L3394.08 204.296V204.294L3620.96 617.927V617.927L3901.31 1129.05C3968.26 1251.02 4107.67 1481.58 4206.8 1567.22C4026.75 1576.81 3997.65 1483.16 3917.18 1367.25L3758.68 1078.3L3758.68 1078.3L3562.33 720.324L3560.47 716.929L3501.94 610.216V610.218L3333.59 303.297H3333.59L3165.25 610.218V610.207L3106.71 716.929L3104.85 720.324L2908.49 1078.3L2908.5 1078.3L2749.99 1367.25C2669.53 1483.16 2640.42 1576.81 2460.37 1567.22C2559.5 1481.58 2698.92 1251.02 2765.86 1129.05L3046.22 617.927V617.927L3273.11 204.294V204.299Z" fill="#FFFFCC"/>
<path d="M19.6414 2666.5C28.9945 2665.25 37.724 2664.32 45.83 2663.69C53.936 2662.44 61.4185 2660.26 68.2774 2657.14C75.7598 2653.4 81.9952 2648.73 86.9835 2643.11C92.5953 2636.88 97.2719 2628.46 101.013 2617.86C120.966 2561.74 140.608 2506.25 159.937 2451.38C179.267 2395.88 198.909 2340.39 218.862 2284.89C231.332 2249.97 243.491 2215.06 255.339 2180.14C267.809 2144.6 280.28 2109.37 292.751 2074.45C298.986 2056.99 311.145 2048.26 329.228 2048.26C337.334 2048.26 344.505 2050.75 350.74 2055.74C357.599 2060.11 362.587 2066.34 365.705 2074.45C381.917 2121.21 398.441 2167.98 415.276 2214.74C432.112 2260.89 448.635 2307.03 464.847 2353.17C481.059 2398.06 496.96 2442.65 512.548 2486.92C528.76 2531.19 544.66 2575.77 560.249 2620.67C565.237 2635.63 572.719 2646.86 582.696 2654.34C592.673 2661.82 605.143 2666.19 620.108 2667.43C625.72 2668.06 629.773 2670.55 632.267 2674.92C634.761 2678.66 635.697 2682.71 635.073 2687.07C635.073 2690.82 633.514 2694.56 630.397 2698.3C627.279 2701.42 622.914 2702.66 617.302 2702.04C583.631 2700.17 549.648 2699.23 515.354 2699.23C477.942 2699.23 439.906 2700.17 401.246 2702.04C395.635 2702.66 390.958 2701.1 387.217 2697.36C383.476 2693 381.917 2688.32 382.54 2683.33C383.787 2673.98 389.399 2668.68 399.376 2667.43C414.964 2666.19 428.37 2663.07 439.594 2658.08C450.194 2653.71 453.935 2646.23 450.818 2635.63C445.206 2613.81 438.659 2592.3 431.176 2571.1L412.47 2520.59H171.161L145.908 2593.54C144.037 2599.16 142.167 2604.77 140.296 2610.38C139.049 2615.99 137.802 2621.6 136.555 2627.21C133.437 2642.8 139.361 2654.03 154.326 2660.89C157.443 2662.76 161.808 2664.32 167.42 2665.56C173.655 2666.19 179.579 2666.81 185.191 2667.43C190.179 2668.68 193.92 2671.49 196.414 2675.85C199.532 2679.59 200.467 2683.96 199.22 2688.94C197.35 2698.92 191.114 2703.29 180.514 2702.04C154.326 2700.17 128.137 2699.23 101.948 2699.23C76.3834 2699.23 49.883 2700.17 22.4474 2702.04C16.8355 2702.66 12.4708 2701.42 9.35307 2698.3C6.23538 2694.56 4.36476 2690.5 3.74123 2686.14C3.74123 2681.15 4.9883 2676.79 7.48245 2673.04C9.9766 2669.3 14.0296 2667.12 19.6414 2666.5ZM182.385 2486.92H400.311L291.816 2181.07L182.385 2486.92ZM682.372 2049.2C689.854 2049.2 698.896 2049.51 709.496 2050.13C720.096 2050.75 730.072 2051.38 739.426 2052C748.779 2052 756.885 2052.31 763.743 2052.94C770.602 2052.94 774.344 2052.94 774.967 2052.94C785.567 2052.94 798.35 2052.62 813.315 2052C828.28 2050.75 843.556 2049.82 859.145 2049.2C875.357 2047.95 890.633 2047.01 904.975 2046.39C919.316 2045.14 930.852 2044.52 939.581 2044.52C965.146 2044.52 989.776 2047.01 1013.47 2052C1037.79 2056.99 1059.61 2065.41 1078.94 2077.25C1098.27 2088.48 1114.48 2103.75 1127.58 2123.08C1140.67 2142.41 1148.78 2166.73 1151.9 2196.04C1154.39 2217.86 1153.77 2239.06 1150.03 2259.64C1146.91 2280.22 1139.74 2300.17 1128.51 2319.5C1103.57 2360.65 1068.65 2387.46 1023.76 2399.94C1051.82 2439.84 1079.57 2479.44 1107 2518.72C1135.06 2558 1163.12 2597.28 1191.18 2636.57L1199.6 2647.79C1208.33 2656.52 1217.37 2662.44 1226.72 2665.56C1236.7 2668.68 1245.43 2670.55 1252.91 2671.17C1257.27 2671.17 1260.7 2672.73 1263.2 2675.85C1266.31 2678.97 1267.87 2682.71 1267.87 2687.07C1267.87 2692.06 1266 2696.12 1262.26 2699.23C1259.14 2702.35 1255.09 2703.6 1250.1 2702.97C1248.23 2702.97 1246.36 2702.66 1244.49 2702.04C1243.24 2702.04 1242 2702.04 1240.75 2702.04C1218.93 2700.79 1198.04 2700.17 1178.08 2700.17C1158.13 2700.17 1137.55 2701.1 1116.35 2702.97C1113.24 2703.6 1111.05 2703.29 1109.81 2702.04C1109.18 2700.79 1108.25 2699.23 1107 2697.36L921.81 2405.55C913.704 2404.3 905.91 2402.74 898.428 2400.87C890.945 2398.38 883.463 2395.88 875.98 2393.39C875.357 2392.76 872.551 2391.83 867.563 2390.58C862.574 2388.71 856.651 2386.84 849.792 2384.97C849.792 2424.88 849.792 2464.78 849.792 2504.69C849.792 2544.6 849.48 2584.5 848.856 2624.41C848.856 2640.62 852.286 2651.53 859.145 2657.14C866.004 2662.76 876.292 2666.19 890.01 2667.43C893.751 2668.06 898.428 2668.37 904.039 2668.37C910.275 2668.37 916.198 2668.37 921.81 2668.37C927.422 2668.37 931.475 2670.24 933.969 2673.98C937.087 2677.72 938.334 2681.77 937.71 2686.14C937.71 2689.88 936.152 2693.62 933.034 2697.36C930.54 2700.48 926.487 2702.04 920.875 2702.04C900.922 2701.42 880.657 2700.79 860.08 2700.17C840.127 2699.54 820.174 2699.23 800.22 2699.23C780.267 2699.23 760.314 2699.54 740.361 2700.17C720.408 2700.79 700.454 2701.42 680.501 2702.04C675.513 2702.04 671.148 2700.48 667.407 2697.36C664.289 2694.24 662.73 2690.19 662.73 2685.2C662.73 2680.22 664.289 2676.16 667.407 2673.04C670.525 2669.93 674.266 2668.37 678.631 2668.37C684.866 2668.37 691.101 2668.37 697.337 2668.37C704.196 2667.74 709.807 2667.12 714.172 2666.5C727.267 2664.63 735.373 2659.95 738.49 2652.47C742.231 2644.36 744.102 2634.7 744.102 2623.47V2128.7C744.102 2116.23 739.737 2105.63 731.008 2096.9C722.902 2088.17 712.925 2083.8 701.078 2083.8H680.501C674.889 2083.8 670.525 2081.93 667.407 2078.19C664.913 2074.45 663.666 2070.4 663.666 2066.03C664.289 2061.67 666.16 2057.92 669.278 2054.81C672.395 2051.07 676.76 2049.2 682.372 2049.2ZM849.792 2124.02V2353.17C858.521 2355.66 866.627 2358.16 874.11 2360.65C882.216 2362.52 886.892 2363.46 888.139 2363.46C909.963 2366.58 930.228 2366.26 948.934 2362.52C968.264 2358.78 986.035 2348.8 1002.25 2332.59C1010.98 2323.86 1017.52 2314.2 1021.89 2303.6C1026.88 2292.37 1030.62 2280.84 1033.11 2268.99C1036.23 2251.53 1037.79 2234.07 1037.79 2216.61C1037.79 2199.16 1035.61 2182.01 1031.24 2165.17C1026.25 2144.6 1018.77 2128.38 1008.79 2116.54C999.441 2104.69 988.217 2095.65 975.123 2089.41C962.028 2083.18 947.375 2079.44 931.163 2078.19C914.951 2076.32 898.116 2075.38 880.657 2075.38C873.174 2075.38 867.251 2076.94 862.886 2080.06C859.145 2083.18 856.339 2087.23 854.468 2092.22C852.598 2096.58 851.351 2101.57 850.727 2107.18C850.103 2112.8 849.792 2118.41 849.792 2124.02ZM1235.23 2176.4C1236.47 2169.54 1237.41 2161.43 1238.03 2152.08C1239.28 2142.73 1240.53 2132.75 1241.77 2122.15C1242.4 2112.8 1242.4 2103.13 1241.77 2093.15C1241.77 2083.18 1241.77 2073.82 1241.77 2065.1C1241.77 2060.11 1243.33 2056.05 1246.45 2052.94C1249.57 2049.82 1253.62 2048.26 1258.61 2048.26C1283.55 2048.88 1310.99 2049.51 1340.92 2050.13C1370.85 2050.75 1400.77 2051.38 1430.7 2052C1460.63 2052.62 1489.01 2052.94 1515.82 2052.94C1543.25 2052.94 1566.32 2052.94 1585.03 2052.94C1595.01 2052.94 1606.85 2052.94 1620.57 2052.94C1634.91 2052.94 1650.19 2052.94 1666.4 2052.94C1683.24 2052.31 1700.7 2052 1718.78 2052C1736.86 2051.38 1754.32 2050.75 1771.16 2050.13C1811.06 2049.51 1853.15 2048.88 1897.42 2048.26C1902.41 2048.26 1906.46 2049.82 1909.58 2052.94C1912.7 2056.05 1914.26 2060.11 1914.26 2065.1C1914.26 2084.42 1914.57 2103.13 1915.19 2121.21C1915.82 2139.3 1917.38 2157.69 1919.87 2176.4C1921.12 2180.14 1920.49 2183.88 1918 2187.62C1916.13 2190.74 1913.32 2192.92 1909.58 2194.17C1905.22 2195.41 1901.48 2194.79 1898.36 2192.3C1895.24 2189.18 1892.43 2185.44 1889.94 2181.07C1887.45 2176.71 1885.58 2172.03 1884.33 2167.04C1883.08 2162.06 1881.83 2158.31 1880.59 2155.82C1875.6 2137.74 1866.56 2123.71 1853.46 2113.73C1840.37 2103.75 1819.79 2096.27 1791.73 2091.28C1777.39 2088.79 1765.86 2087.54 1757.13 2087.54C1748.4 2086.92 1742.47 2086.92 1739.36 2087.54C1700.07 2088.79 1672.01 2095.96 1655.18 2109.05C1638.97 2121.53 1630.86 2136.8 1630.86 2154.88V2628.15C1630.86 2644.99 1635.23 2655.9 1643.95 2660.89C1653.31 2665.87 1665.15 2668.37 1679.5 2668.37H1695.4C1701.01 2668.37 1705.37 2670.24 1708.49 2673.98C1711.61 2677.72 1713.17 2681.77 1713.17 2686.14C1713.17 2690.5 1711.61 2694.56 1708.49 2698.3C1705.37 2702.04 1700.7 2703.6 1694.46 2702.97C1675.13 2701.73 1655.8 2700.79 1636.47 2700.17C1617.14 2699.54 1597.5 2699.23 1577.55 2699.23C1558.22 2699.23 1538.89 2699.54 1519.56 2700.17C1500.23 2700.79 1480.59 2701.73 1460.63 2702.97C1455.02 2703.6 1450.66 2702.04 1447.54 2698.3C1444.42 2694.56 1442.86 2690.5 1442.86 2686.14C1442.86 2681.77 1444.11 2677.72 1446.6 2673.98C1449.72 2670.24 1454.09 2668.37 1459.7 2668.37H1466.25C1473.73 2668.37 1480.9 2668.06 1487.76 2667.43C1495.24 2666.81 1501.48 2665.25 1506.46 2662.76C1512.08 2660.26 1516.44 2656.52 1519.56 2651.53C1522.68 2645.92 1524.24 2638.13 1524.24 2628.15L1525.17 2154.88C1525.17 2136.8 1516.75 2121.53 1499.92 2109.05C1483.71 2095.96 1455.96 2088.79 1416.68 2087.54C1413.56 2086.92 1407.63 2086.92 1398.9 2087.54C1390.17 2087.54 1378.64 2088.79 1364.3 2091.28C1336.24 2096.27 1315.35 2103.75 1301.63 2113.73C1288.54 2123.71 1279.5 2137.74 1274.51 2155.82C1273.88 2158.31 1272.95 2162.06 1271.7 2167.04C1270.46 2172.03 1268.58 2176.71 1266.09 2181.07C1263.6 2185.44 1260.79 2189.18 1257.67 2192.3C1254.56 2194.79 1250.81 2195.41 1246.45 2194.17C1242.71 2192.92 1239.59 2190.74 1237.1 2187.62C1235.23 2183.88 1234.6 2180.14 1235.23 2176.4ZM1974.77 2049.2C1994.72 2050.44 2014.36 2051.38 2033.69 2052C2053.02 2052.62 2072.35 2052.94 2091.68 2052.94C2111.63 2052.94 2131.28 2052.62 2150.61 2052C2169.94 2051.38 2189.26 2050.44 2208.59 2049.2C2213.58 2048.57 2217.64 2050.13 2220.75 2053.87C2224.49 2056.99 2226.37 2061.04 2226.37 2066.03C2226.37 2070.4 2224.81 2074.45 2221.69 2078.19C2219.19 2081.31 2215.45 2082.87 2210.47 2082.87C2203.61 2082.87 2196.75 2083.18 2189.89 2083.8C2183.03 2083.8 2176.17 2084.43 2169.31 2085.67C2158.71 2088.17 2151.85 2092.84 2148.73 2099.7C2145.62 2106.56 2144.06 2114.67 2144.06 2124.02V2343.82H2448.03V2127.76C2448.03 2117.78 2446.47 2109.05 2443.36 2101.57C2440.24 2093.47 2433.07 2088.17 2421.84 2085.67C2416.86 2085.05 2410.62 2084.74 2403.14 2084.74C2396.28 2084.11 2389.42 2083.49 2382.56 2082.87C2377.57 2082.87 2373.52 2081.31 2370.4 2078.19C2367.28 2075.07 2365.73 2071.02 2365.73 2066.03C2365.73 2061.04 2367.6 2056.99 2371.34 2053.87C2375.08 2050.13 2379.44 2048.57 2384.43 2049.2C2404.39 2050.44 2423.72 2051.38 2442.42 2052C2461.75 2052.62 2481.39 2052.94 2501.35 2052.94C2520.68 2052.94 2540 2052.62 2559.33 2052C2578.66 2051.38 2598.31 2050.44 2618.26 2049.2C2623.25 2048.57 2627.3 2050.13 2630.42 2053.87C2634.16 2056.99 2636.03 2061.04 2636.03 2066.03C2636.03 2070.4 2634.47 2074.45 2631.35 2078.19C2628.24 2081.31 2624.18 2082.87 2619.19 2082.87C2612.34 2082.87 2605.48 2083.18 2598.62 2083.8C2591.76 2083.8 2584.9 2084.43 2578.04 2085.67C2562.45 2089.41 2554.03 2100.01 2552.79 2117.47V2626.28C2552.79 2652.47 2565.26 2665.87 2590.2 2666.5C2595.19 2667.12 2599.55 2667.43 2603.29 2667.43C2607.66 2667.43 2612.34 2667.43 2617.32 2667.43C2622.94 2667.43 2626.99 2669.3 2629.48 2673.04C2632.6 2676.79 2634.16 2680.84 2634.16 2685.2C2634.16 2689.57 2632.6 2693.62 2629.48 2697.36C2626.36 2700.48 2622 2702.04 2616.39 2702.04C2597.06 2700.79 2577.73 2699.86 2558.4 2699.23C2539.07 2698.61 2519.74 2698.3 2500.41 2698.3C2481.08 2698.3 2461.75 2698.61 2442.42 2699.23C2423.72 2699.86 2404.39 2700.79 2384.43 2702.04C2379.44 2702.04 2375.08 2700.48 2371.34 2697.36C2367.6 2693.62 2365.73 2689.26 2365.73 2684.27C2365.73 2679.28 2367.28 2675.23 2370.4 2672.11C2374.14 2668.99 2378.51 2667.43 2383.5 2667.43H2406.88C2434.32 2666.81 2448.03 2652.16 2448.03 2623.47V2377.49H2144.06V2626.28C2144.06 2652.47 2156.53 2665.87 2181.47 2666.5C2185.84 2667.12 2190.2 2667.43 2194.57 2667.43C2198.93 2667.43 2203.61 2667.43 2208.59 2667.43C2214.21 2667.43 2218.26 2669.3 2220.75 2673.04C2223.87 2676.79 2225.43 2680.84 2225.43 2685.2C2225.43 2689.57 2223.87 2693.62 2220.75 2697.36C2217.64 2700.48 2213.27 2702.04 2207.66 2702.04C2188.33 2700.79 2169 2699.86 2149.67 2699.23C2130.34 2698.61 2111.01 2698.3 2091.68 2698.3C2072.35 2698.3 2053.02 2698.61 2033.69 2699.23C2014.99 2699.86 1995.66 2700.79 1975.7 2702.04C1970.71 2702.04 1966.35 2700.48 1962.61 2697.36C1958.87 2693.62 1957 2689.26 1957 2684.27C1957 2679.28 1958.56 2675.23 1961.67 2672.11C1965.41 2668.99 1969.78 2667.43 1974.77 2667.43H1998.15C2012.49 2666.81 2022.78 2663.07 2029.02 2656.21C2035.25 2648.73 2038.37 2637.81 2038.37 2623.47V2127.76C2038.37 2117.78 2036.81 2109.05 2033.69 2101.57C2031.2 2093.47 2024.03 2088.17 2012.18 2085.67C2007.82 2085.05 2001.89 2084.74 1994.41 2084.74C1987.55 2084.11 1980.69 2083.49 1973.83 2082.87C1968.84 2082.87 1964.79 2081.31 1961.67 2078.19C1958.56 2075.07 1957 2071.02 1957 2066.03C1957 2061.04 1958.56 2056.99 1961.67 2053.87C1965.41 2050.13 1969.78 2048.57 1974.77 2049.2ZM2678.51 2666.5C2687.86 2665.25 2696.59 2664.32 2704.69 2663.69C2712.8 2662.44 2720.28 2660.26 2727.14 2657.14C2734.62 2653.4 2740.86 2648.73 2745.85 2643.11C2751.46 2636.88 2756.14 2628.46 2759.88 2617.86C2779.83 2561.74 2799.47 2506.25 2818.8 2451.38C2838.13 2395.88 2857.77 2340.39 2877.73 2284.89C2890.2 2249.97 2902.36 2215.06 2914.2 2180.14C2926.67 2144.6 2939.14 2109.37 2951.62 2074.45C2957.85 2056.99 2970.01 2048.26 2988.09 2048.26C2996.2 2048.26 3003.37 2050.75 3009.6 2055.74C3016.46 2060.11 3021.45 2066.34 3024.57 2074.45C3040.78 2121.21 3057.3 2167.98 3074.14 2214.74C3090.98 2260.89 3107.5 2307.03 3123.71 2353.17C3139.92 2398.06 3155.82 2442.65 3171.41 2486.92C3187.62 2531.19 3203.52 2575.77 3219.11 2620.67C3224.1 2635.63 3231.58 2646.86 3241.56 2654.34C3251.54 2661.82 3264.01 2666.19 3278.97 2667.43C3284.58 2668.06 3288.64 2670.55 3291.13 2674.92C3293.63 2678.66 3294.56 2682.71 3293.94 2687.07C3293.94 2690.82 3292.38 2694.56 3289.26 2698.3C3286.14 2701.42 3281.78 2702.66 3276.17 2702.04C3242.5 2700.17 3208.51 2699.23 3174.22 2699.23C3136.81 2699.23 3098.77 2700.17 3060.11 2702.04C3054.5 2702.66 3049.82 2701.1 3046.08 2697.36C3042.34 2693 3040.78 2688.32 3041.4 2683.33C3042.65 2673.98 3048.26 2668.68 3058.24 2667.43C3073.83 2666.19 3087.23 2663.07 3098.46 2658.08C3109.06 2653.71 3112.8 2646.23 3109.68 2635.63C3104.07 2613.81 3097.52 2592.3 3090.04 2571.1L3071.33 2520.59H2830.03L2804.77 2593.54C2802.9 2599.16 2801.03 2604.77 2799.16 2610.38C2797.91 2615.99 2796.67 2621.6 2795.42 2627.21C2792.3 2642.8 2798.22 2654.03 2813.19 2660.89C2816.31 2662.76 2820.67 2664.32 2826.28 2665.56C2832.52 2666.19 2838.44 2666.81 2844.05 2667.43C2849.04 2668.68 2852.78 2671.49 2855.28 2675.85C2858.4 2679.59 2859.33 2683.96 2858.08 2688.94C2856.21 2698.92 2849.98 2703.29 2839.38 2702.04C2813.19 2700.17 2787 2699.23 2760.81 2699.23C2735.25 2699.23 2708.75 2700.17 2681.31 2702.04C2675.7 2702.66 2671.34 2701.42 2668.22 2698.3C2665.1 2694.56 2663.23 2690.5 2662.61 2686.14C2662.61 2681.15 2663.85 2676.79 2666.35 2673.04C2668.84 2669.3 2672.89 2667.12 2678.51 2666.5ZM2841.25 2486.92H3059.18L2950.68 2181.07L2841.25 2486.92ZM3344.98 2663.69C3346.22 2656.83 3347.47 2647.79 3348.72 2636.57C3349.97 2625.34 3350.59 2613.18 3350.59 2600.09C3350.59 2587.62 3349.97 2575.46 3348.72 2563.61C3348.1 2551.14 3347.16 2540.54 3345.91 2531.81C3344.67 2526.82 3345.6 2522.46 3348.72 2518.72C3352.46 2514.98 3356.82 2513.11 3361.81 2513.11C3369.3 2513.11 3374.28 2517.16 3376.78 2525.27C3381.14 2542.73 3386.13 2559.87 3391.74 2576.71C3397.35 2593.54 3404.84 2608.82 3414.19 2622.54C3423.54 2636.26 3435.08 2648.1 3448.8 2658.08C3463.14 2667.43 3480.6 2673.67 3501.17 2676.79C3517.39 2679.28 3533.29 2680.22 3548.87 2679.59C3564.46 2678.34 3579.74 2674.29 3594.7 2667.43C3609.67 2661.2 3622.14 2652.47 3632.12 2641.24C3642.72 2630.02 3650.2 2617.55 3654.56 2603.83C3659.55 2590.11 3661.42 2575.77 3660.18 2560.81C3659.55 2545.22 3655.5 2530.25 3648.02 2515.91C3641.16 2501.57 3632.43 2489.41 3621.83 2479.44C3611.23 2469.46 3599.69 2460.42 3587.22 2452.31C3566.65 2438.59 3545.76 2425.19 3524.56 2412.09C3503.98 2399 3483.4 2385.91 3462.83 2372.81C3448.48 2363.46 3434.77 2353.48 3421.67 2342.88C3408.58 2332.28 3396.42 2320.43 3385.2 2307.34C3359.01 2276.79 3346.54 2241.24 3347.78 2200.71C3348.41 2170.16 3354.02 2144.6 3364.62 2124.02C3375.84 2102.82 3390.18 2085.67 3407.64 2072.58C3425.73 2059.48 3446.3 2050.13 3469.37 2044.52C3493.07 2038.91 3517.39 2036.1 3542.33 2036.1C3558.54 2036.1 3574.44 2037.04 3590.03 2038.91C3608.11 2041.4 3626.5 2044.52 3645.21 2048.26C3663.92 2052 3682.31 2055.43 3700.39 2058.55C3706.01 2059.17 3709.12 2062.29 3709.75 2067.9C3712.86 2081.62 3715.67 2095.34 3718.16 2109.05C3721.28 2122.77 3724.71 2136.49 3728.45 2150.21C3729.7 2155.2 3730.95 2160.18 3732.19 2165.17C3734.06 2169.54 3735.62 2174.21 3736.87 2179.2C3738.74 2184.19 3738.43 2188.87 3735.94 2193.23C3733.44 2197.6 3729.7 2200.4 3724.71 2201.65C3715.98 2203.52 3709.44 2200.09 3705.07 2191.36C3696.34 2170.78 3685.12 2153.01 3671.4 2138.05C3657.68 2123.08 3642.72 2110.61 3626.5 2100.64C3610.92 2090.04 3594.7 2082.24 3577.87 2077.25C3561.03 2072.27 3544.51 2069.77 3528.3 2069.77C3514.58 2069.77 3501.49 2071.64 3489.01 2075.38C3477.17 2079.12 3466.57 2084.74 3457.21 2092.22C3447.86 2099.08 3440.38 2107.81 3434.77 2118.41C3429.16 2129.01 3426.04 2141.48 3425.41 2155.82C3424.79 2173.9 3428.22 2190.11 3435.7 2204.46C3443.18 2218.17 3453.47 2230.64 3466.57 2241.87C3480.29 2253.09 3494.31 2263.38 3508.66 2272.73C3523.62 2282.09 3538.59 2291.13 3553.55 2299.86C3573.5 2311.08 3592.83 2322.62 3611.54 2334.46C3630.87 2346.31 3649.58 2359.41 3667.66 2373.75C3684.49 2388.09 3699.15 2403.68 3711.62 2420.51C3724.71 2437.35 3733.75 2456.99 3738.74 2479.44C3744.98 2507.5 3746.22 2534.62 3742.48 2560.81C3738.74 2586.37 3727.83 2611 3709.75 2634.7C3696.65 2652.16 3681.38 2666.19 3663.92 2676.79C3647.08 2687.39 3628.69 2696.12 3608.73 2702.97C3588.16 2709.21 3567.27 2712.95 3546.07 2714.2C3525.49 2716.07 3504.29 2716.38 3482.47 2715.13C3450.67 2712.02 3423.85 2707.03 3402.03 2700.17C3380.21 2692.69 3364.31 2686.45 3354.33 2681.46C3346.85 2678.34 3343.73 2672.42 3344.98 2663.69ZM3825.29 2049.2C3845.24 2050.44 3864.88 2051.38 3884.21 2052C3903.54 2052.62 3922.87 2052.94 3942.2 2052.94C3962.15 2052.94 3981.79 2052.62 4001.12 2052C4020.45 2051.38 4039.78 2050.44 4059.11 2049.2C4064.1 2048.57 4068.15 2050.13 4071.27 2053.87C4075.01 2056.99 4076.88 2061.04 4076.88 2066.03C4076.88 2070.4 4075.33 2074.45 4072.21 2078.19C4069.71 2081.31 4065.97 2082.87 4060.98 2082.87C4054.12 2082.87 4047.27 2083.18 4040.41 2083.8C4033.55 2083.8 4026.69 2084.43 4019.83 2085.67C4009.23 2088.17 4002.37 2092.84 3999.25 2099.7C3996.14 2106.56 3994.58 2114.67 3994.58 2124.02V2626.28C3994.58 2652.47 4007.05 2665.87 4031.99 2666.5C4036.35 2667.12 4040.72 2667.43 4045.08 2667.43C4049.45 2667.43 4054.12 2667.43 4059.11 2667.43C4064.73 2667.43 4068.78 2669.3 4071.27 2673.04C4074.39 2676.16 4075.95 2680.22 4075.95 2685.2C4075.95 2689.57 4074.39 2693.62 4071.27 2697.36C4068.15 2700.48 4063.79 2702.04 4058.18 2702.04C4038.85 2700.79 4019.52 2699.86 4000.19 2699.23C3980.86 2698.61 3961.53 2698.3 3942.2 2698.3C3922.87 2698.3 3903.54 2698.61 3884.21 2699.23C3865.5 2699.86 3846.18 2700.79 3826.22 2702.04C3821.23 2702.04 3816.87 2700.48 3813.13 2697.36C3809.39 2693.62 3807.52 2689.26 3807.52 2684.27C3807.52 2679.28 3809.07 2675.23 3812.19 2672.11C3815.93 2668.99 3820.3 2667.43 3825.29 2667.43H3848.67C3863.01 2666.81 3873.3 2663.07 3879.53 2656.21C3885.77 2648.73 3888.89 2637.81 3888.89 2623.47V2127.76C3888.89 2117.78 3887.33 2109.05 3884.21 2101.57C3881.72 2093.47 3874.55 2088.17 3862.7 2085.67C3858.33 2085.05 3852.41 2084.74 3844.93 2084.74C3838.07 2084.11 3831.21 2083.49 3824.35 2082.87C3818.74 2082.87 3814.37 2081 3811.26 2077.25C3808.76 2073.51 3807.52 2069.46 3807.52 2065.1C3807.52 2060.73 3809.07 2056.99 3812.19 2053.87C3815.31 2050.13 3819.67 2048.57 3825.29 2049.2ZM4139.47 2668.37C4143.83 2668.37 4147.89 2668.37 4151.63 2668.37C4155.37 2668.37 4159.11 2668.06 4162.85 2667.43C4190.91 2667.43 4204.94 2652.47 4204.94 2622.54V2129.63C4204.94 2107.81 4199.95 2094.71 4189.98 2090.35C4180 2085.98 4165.97 2083.8 4147.89 2083.8C4142.27 2083.18 4136.97 2081.93 4131.99 2080.06C4127 2078.19 4124.5 2073.51 4124.5 2066.03C4124.5 2061.04 4126.06 2056.99 4129.18 2053.87C4132.92 2050.13 4137.29 2048.57 4142.27 2049.2C4149.13 2049.2 4157.55 2049.51 4167.53 2050.13C4178.13 2050.75 4188.42 2051.38 4198.39 2052C4208.37 2052 4217.41 2052.31 4225.52 2052.94C4233.62 2052.94 4239.23 2052.94 4242.35 2052.94C4254.82 2052.94 4268.23 2052.62 4282.57 2052C4296.91 2050.75 4311.25 2049.82 4325.59 2049.2C4339.94 2047.95 4353.34 2047.01 4365.81 2046.39C4378.91 2045.14 4389.82 2044.52 4398.55 2044.52C4443.44 2044.52 4487.71 2048.88 4531.36 2057.61C4575.63 2065.72 4616.16 2080.06 4652.95 2100.64C4690.36 2121.21 4722.16 2148.34 4748.35 2182.01C4775.17 2215.06 4793.25 2256.21 4802.6 2305.47C4809.46 2342.88 4811.02 2379.36 4807.28 2414.9C4804.16 2450.44 4794.5 2485.36 4778.28 2519.65C4764.57 2548.34 4747.11 2573.9 4725.91 2596.35C4705.33 2618.17 4682.26 2636.88 4656.69 2652.47C4631.13 2667.43 4603.69 2679.59 4574.39 2688.94C4545.7 2697.67 4516.09 2703.6 4485.53 2706.72C4466.2 2708.59 4447.18 2708.9 4428.48 2707.65C4409.77 2707.03 4391.07 2706.09 4372.36 2704.84C4348.67 2702.97 4324.35 2701.1 4299.41 2699.23C4275.09 2697.36 4251.08 2697.05 4227.39 2698.3C4215.54 2698.92 4200.89 2699.54 4183.43 2700.17C4166.59 2700.79 4152.25 2701.42 4140.4 2702.04C4135.42 2702.66 4131.05 2701.42 4127.31 2698.3C4124.19 2694.56 4122.63 2690.19 4122.63 2685.2C4122.63 2680.22 4124.19 2676.16 4127.31 2673.04C4130.43 2669.93 4134.48 2668.37 4139.47 2668.37ZM4310.63 2550.52C4310.63 2559.25 4310.63 2567.98 4310.63 2576.71C4311.25 2585.44 4311.88 2594.17 4312.5 2602.9C4313.12 2617.24 4317.49 2629.09 4325.59 2638.44C4333.7 2647.79 4343.37 2655.27 4354.59 2660.89C4366.44 2665.87 4379.22 2669.62 4392.94 2672.11C4406.65 2673.98 4419.44 2674.92 4431.28 2674.92C4459.97 2674.92 4487.09 2670.86 4512.66 2662.76C4538.22 2654.03 4561.29 2641.87 4581.87 2626.28C4603.07 2610.69 4621.46 2591.98 4637.05 2570.16C4653.26 2547.71 4666.05 2523.08 4675.4 2496.27C4687.25 2461.98 4693.48 2427.68 4694.11 2393.39C4695.35 2359.09 4692.24 2324.49 4684.75 2289.57C4677.27 2254.03 4664.8 2223.16 4647.34 2196.97C4629.88 2170.16 4608.68 2148.34 4583.74 2131.5C4559.42 2114.04 4531.99 2100.95 4501.43 2092.22C4470.88 2083.49 4438.46 2078.81 4404.16 2078.19C4388.57 2077.57 4372.98 2077.57 4357.4 2078.19C4342.43 2078.81 4326.84 2079.12 4310.63 2079.12V2089.41V2550.52ZM4861.96 2668.37C4866.32 2668.37 4870.37 2668.37 4874.12 2668.37C4877.86 2668.37 4881.6 2668.06 4885.34 2667.43C4913.4 2667.43 4927.43 2652.47 4927.43 2622.54V2129.63C4927.43 2107.81 4922.44 2094.71 4912.46 2090.35C4902.49 2085.98 4888.46 2083.8 4870.37 2083.8C4864.76 2083.18 4859.46 2081.93 4854.47 2080.06C4849.49 2078.19 4846.99 2073.51 4846.99 2066.03C4846.99 2061.04 4848.55 2056.99 4851.67 2053.87C4855.41 2050.13 4859.77 2048.57 4864.76 2049.2C4871.62 2049.2 4880.04 2049.51 4890.02 2050.13C4900.62 2050.75 4910.9 2051.38 4920.88 2052C4930.86 2052 4939.9 2052.31 4948 2052.94C4956.11 2052.94 4961.72 2052.94 4964.84 2052.94C4977.31 2052.94 4990.72 2052.62 5005.06 2052C5019.4 2050.75 5033.74 2049.82 5048.08 2049.2C5062.42 2047.95 5075.83 2047.01 5088.3 2046.39C5101.4 2045.14 5112.31 2044.52 5121.04 2044.52C5165.93 2044.52 5210.2 2048.88 5253.85 2057.61C5298.12 2065.72 5338.65 2080.06 5375.44 2100.64C5412.85 2121.21 5444.65 2148.34 5470.84 2182.01C5497.65 2215.06 5515.74 2256.21 5525.09 2305.47C5531.95 2342.88 5533.51 2379.36 5529.77 2414.9C5526.65 2450.44 5516.98 2485.36 5500.77 2519.65C5487.05 2548.34 5469.59 2573.9 5448.39 2596.35C5427.82 2618.17 5404.75 2636.88 5379.18 2652.47C5353.62 2667.43 5326.18 2679.59 5296.87 2688.94C5268.19 2697.67 5238.57 2703.6 5208.02 2706.72C5188.69 2708.59 5169.67 2708.9 5150.97 2707.65C5132.26 2707.03 5113.55 2706.09 5094.85 2704.84C5071.15 2702.97 5046.84 2701.1 5021.89 2699.23C4997.58 2697.36 4973.57 2697.05 4949.88 2698.3C4938.03 2698.92 4923.38 2699.54 4905.92 2700.17C4889.08 2700.79 4874.74 2701.42 4862.89 2702.04C4857.9 2702.66 4853.54 2701.42 4849.8 2698.3C4846.68 2694.56 4845.12 2690.19 4845.12 2685.2C4845.12 2680.22 4846.68 2676.16 4849.8 2673.04C4852.92 2669.93 4856.97 2668.37 4861.96 2668.37ZM5033.12 2550.52C5033.12 2559.25 5033.12 2567.98 5033.12 2576.71C5033.74 2585.44 5034.36 2594.17 5034.99 2602.9C5035.61 2617.24 5039.98 2629.09 5048.08 2638.44C5056.19 2647.79 5065.85 2655.27 5077.08 2660.89C5088.92 2665.87 5101.71 2669.62 5115.42 2672.11C5129.14 2673.98 5141.93 2674.92 5153.77 2674.92C5182.46 2674.92 5209.58 2670.86 5235.14 2662.76C5260.71 2654.03 5283.78 2641.87 5304.36 2626.28C5325.56 2610.69 5343.95 2591.98 5359.54 2570.16C5375.75 2547.71 5388.53 2523.08 5397.89 2496.27C5409.73 2461.98 5415.97 2427.68 5416.59 2393.39C5417.84 2359.09 5414.72 2324.49 5407.24 2289.57C5399.76 2254.03 5387.29 2223.16 5369.83 2196.97C5352.37 2170.16 5331.17 2148.34 5306.23 2131.5C5281.91 2114.04 5254.47 2100.95 5223.92 2092.22C5193.37 2083.49 5160.94 2078.81 5126.65 2078.19C5111.06 2077.57 5095.47 2077.57 5079.88 2078.19C5064.92 2078.81 5049.33 2079.12 5033.12 2079.12V2089.41V2550.52ZM5585.38 2049.2C5605.33 2050.44 5624.97 2051.38 5644.3 2052C5663.63 2052.62 5682.96 2052.94 5702.29 2052.94C5722.25 2052.94 5741.89 2052.62 5761.22 2052C5780.55 2051.38 5799.88 2050.44 5819.21 2049.2C5824.19 2048.57 5828.25 2050.13 5831.37 2053.87C5835.11 2056.99 5836.98 2061.04 5836.98 2066.03C5836.98 2070.4 5835.42 2074.45 5832.3 2078.19C5829.81 2081.31 5826.07 2082.87 5821.08 2082.87C5814.22 2082.87 5807.36 2083.18 5800.5 2083.8C5793.64 2083.8 5786.78 2084.43 5779.92 2085.67C5769.32 2088.17 5762.46 2092.84 5759.35 2099.7C5756.23 2106.56 5754.67 2114.67 5754.67 2124.02V2343.82H6058.64V2127.76C6058.64 2117.78 6057.09 2109.05 6053.97 2101.57C6050.85 2093.47 6043.68 2088.17 6032.46 2085.67C6027.47 2085.05 6021.23 2084.74 6013.75 2084.74C6006.89 2084.11 6000.03 2083.49 5993.17 2082.87C5988.19 2082.87 5984.13 2081.31 5981.01 2078.19C5977.9 2075.07 5976.34 2071.02 5976.34 2066.03C5976.34 2061.04 5978.21 2056.99 5981.95 2053.87C5985.69 2050.13 5990.06 2048.57 5995.04 2049.2C6015 2050.44 6034.33 2051.38 6053.03 2052C6072.36 2052.62 6092 2052.94 6111.96 2052.94C6131.29 2052.94 6150.62 2052.62 6169.95 2052C6189.28 2051.38 6208.92 2050.44 6228.87 2049.2C6233.86 2048.57 6237.91 2050.13 6241.03 2053.87C6244.77 2056.99 6246.64 2061.04 6246.64 2066.03C6246.64 2070.4 6245.08 2074.45 6241.96 2078.19C6238.85 2081.31 6234.79 2082.87 6229.81 2082.87C6222.95 2082.87 6216.09 2083.18 6209.23 2083.8C6202.37 2083.8 6195.51 2084.43 6188.65 2085.67C6173.06 2089.41 6164.65 2100.01 6163.4 2117.47V2626.28C6163.4 2652.47 6175.87 2665.87 6200.81 2666.5C6205.8 2667.12 6210.16 2667.43 6213.91 2667.43C6218.27 2667.43 6222.95 2667.43 6227.94 2667.43C6233.55 2667.43 6237.6 2669.3 6240.09 2673.04C6243.21 2676.79 6244.77 2680.84 6244.77 2685.2C6244.77 2689.57 6243.21 2693.62 6240.09 2697.36C6236.98 2700.48 6232.61 2702.04 6227 2702.04C6207.67 2700.79 6188.34 2699.86 6169.01 2699.23C6149.68 2698.61 6130.35 2698.3 6111.02 2698.3C6091.69 2698.3 6072.36 2698.61 6053.03 2699.23C6034.33 2699.86 6015 2700.79 5995.04 2702.04C5990.06 2702.04 5985.69 2700.48 5981.95 2697.36C5978.21 2693.62 5976.34 2689.26 5976.34 2684.27C5976.34 2679.28 5977.9 2675.23 5981.01 2672.11C5984.76 2668.99 5989.12 2667.43 5994.11 2667.43H6017.49C6044.93 2666.81 6058.64 2652.16 6058.64 2623.47V2377.49H5754.67V2626.28C5754.67 2652.47 5767.14 2665.87 5792.08 2666.5C5796.45 2667.12 5800.81 2667.43 5805.18 2667.43C5809.54 2667.43 5814.22 2667.43 5819.21 2667.43C5824.82 2667.43 5828.87 2669.3 5831.37 2673.04C5834.48 2676.79 5836.04 2680.84 5836.04 2685.2C5836.04 2689.57 5834.48 2693.62 5831.37 2697.36C5828.25 2700.48 5823.88 2702.04 5818.27 2702.04C5798.94 2700.79 5779.61 2699.86 5760.28 2699.23C5740.95 2698.61 5721.62 2698.3 5702.29 2698.3C5682.96 2698.3 5663.63 2698.61 5644.3 2699.23C5625.6 2699.86 5606.27 2700.79 5586.32 2702.04C5581.33 2702.04 5576.96 2700.48 5573.22 2697.36C5569.48 2693.62 5567.61 2689.26 5567.61 2684.27C5567.61 2679.28 5569.17 2675.23 5572.29 2672.11C5576.03 2668.99 5580.39 2667.43 5585.38 2667.43H5608.76C5623.1 2666.81 5633.39 2663.07 5639.63 2656.21C5645.86 2648.73 5648.98 2637.81 5648.98 2623.47V2127.76C5648.98 2117.78 5647.42 2109.05 5644.3 2101.57C5641.81 2093.47 5634.64 2088.17 5622.79 2085.67C5618.43 2085.05 5612.5 2084.74 5605.02 2084.74C5598.16 2084.11 5591.3 2083.49 5584.44 2082.87C5579.46 2082.87 5575.4 2081.31 5572.29 2078.19C5569.17 2075.07 5567.61 2071.02 5567.61 2066.03C5567.61 2061.04 5569.17 2056.99 5572.29 2053.87C5576.03 2050.13 5580.39 2048.57 5585.38 2049.2ZM6289.12 2666.5C6298.47 2665.25 6307.2 2664.32 6315.31 2663.69C6323.41 2662.44 6330.89 2660.26 6337.75 2657.14C6345.24 2653.4 6351.47 2648.73 6356.46 2643.11C6362.07 2636.88 6366.75 2628.46 6370.49 2617.86C6390.44 2561.74 6410.08 2506.25 6429.41 2451.38C6448.74 2395.88 6468.38 2340.39 6488.34 2284.89C6500.81 2249.97 6512.97 2215.06 6524.81 2180.14C6537.29 2144.6 6549.76 2109.37 6562.23 2074.45C6568.46 2056.99 6580.62 2048.26 6598.7 2048.26C6606.81 2048.26 6613.98 2050.75 6620.22 2055.74C6627.07 2060.11 6632.06 2066.34 6635.18 2074.45C6651.39 2121.21 6667.92 2167.98 6684.75 2214.74C6701.59 2260.89 6718.11 2307.03 6734.32 2353.17C6750.54 2398.06 6766.44 2442.65 6782.02 2486.92C6798.24 2531.19 6814.14 2575.77 6829.72 2620.67C6834.71 2635.63 6842.2 2646.86 6852.17 2654.34C6862.15 2661.82 6874.62 2666.19 6889.58 2667.43C6895.2 2668.06 6899.25 2670.55 6901.74 2674.92C6904.24 2678.66 6905.17 2682.71 6904.55 2687.07C6904.55 2690.82 6902.99 2694.56 6899.87 2698.3C6896.75 2701.42 6892.39 2702.66 6886.78 2702.04C6853.11 2700.17 6819.12 2699.23 6784.83 2699.23C6747.42 2699.23 6709.38 2700.17 6670.72 2702.04C6665.11 2702.66 6660.43 2701.1 6656.69 2697.36C6652.95 2693 6651.39 2688.32 6652.02 2683.33C6653.26 2673.98 6658.88 2668.68 6668.85 2667.43C6684.44 2666.19 6697.85 2663.07 6709.07 2658.08C6719.67 2653.71 6723.41 2646.23 6720.29 2635.63C6714.68 2613.81 6708.13 2592.3 6700.65 2571.1L6681.95 2520.59H6440.64L6415.38 2593.54C6413.51 2599.16 6411.64 2604.77 6409.77 2610.38C6408.52 2615.99 6407.28 2621.6 6406.03 2627.21C6402.91 2642.8 6408.84 2654.03 6423.8 2660.89C6426.92 2662.76 6431.28 2664.32 6436.9 2665.56C6443.13 2666.19 6449.05 2666.81 6454.67 2667.43C6459.66 2668.68 6463.4 2671.49 6465.89 2675.85C6469.01 2679.59 6469.94 2683.96 6468.7 2688.94C6466.83 2698.92 6460.59 2703.29 6449.99 2702.04C6423.8 2700.17 6397.61 2699.23 6371.42 2699.23C6345.86 2699.23 6319.36 2700.17 6291.92 2702.04C6286.31 2702.66 6281.95 2701.42 6278.83 2698.3C6275.71 2694.56 6273.84 2690.5 6273.22 2686.14C6273.22 2681.15 6274.46 2676.79 6276.96 2673.04C6279.45 2669.3 6283.51 2667.12 6289.12 2666.5ZM6451.86 2486.92H6669.79L6561.29 2181.07L6451.86 2486.92Z" fill="#BDBD0D"/>
<path d="M1768.09 3039.61H1894.57C1896.39 3039.61 1897.88 3040.18 1899.02 3041.32C1900.15 3042.46 1900.72 3043.94 1900.72 3045.77C1900.72 3047.59 1900.15 3049.07 1899.02 3050.21C1897.88 3051.35 1896.39 3051.92 1894.57 3051.92H1768.09C1766.27 3051.92 1764.79 3051.35 1763.65 3050.21C1762.51 3049.07 1761.94 3047.59 1761.94 3045.77C1761.94 3043.94 1762.51 3042.46 1763.65 3041.32C1764.79 3040.18 1766.27 3039.61 1768.09 3039.61ZM1920.12 2929.54C1920.12 2927.72 1920.69 2926.24 1921.82 2925.1C1923.19 2923.96 1924.79 2923.39 1926.61 2923.39C1938 2924.07 1949.29 2924.53 1960.45 2924.76C1971.85 2924.98 1983.24 2925.1 1994.64 2925.1C2011.5 2925.1 2028.25 2924.87 2044.89 2924.41C2061.75 2923.96 2078.73 2923.5 2095.82 2923.05C2097.64 2923.05 2099.12 2923.62 2100.26 2924.76C2101.63 2925.9 2102.31 2927.38 2102.31 2929.2C2102.09 2932.39 2101.86 2935.81 2101.63 2939.45C2101.63 2943.1 2101.86 2946.63 2102.31 2950.05C2102.54 2953.93 2102.77 2957.57 2103 2960.99C2103.45 2964.41 2103.91 2967.37 2104.37 2969.88C2104.59 2971.25 2104.37 2972.61 2103.68 2973.98C2103 2975.12 2101.97 2975.92 2100.61 2976.37C2097.19 2977.06 2094.91 2975.92 2093.77 2972.95C2093.08 2971.13 2092.4 2969.19 2091.72 2967.14C2091.03 2965.09 2090.46 2963.5 2090.01 2962.36C2086.36 2949.6 2077.82 2942.19 2064.37 2940.14C2055.71 2938.54 2046.94 2937.63 2038.05 2937.4C2029.39 2937.18 2020.73 2937.29 2012.07 2937.75C2005 2937.97 1999.08 2940.59 1994.29 2945.61C1989.74 2950.39 1987.46 2956.09 1987.46 2962.7V3031.07H1990.19C1998.62 3031.07 2006.94 3031.07 2015.15 3031.07C2023.58 3031.07 2032.01 3030.95 2040.44 3030.73C2046.14 3030.5 2050.58 3029.81 2053.77 3028.67C2057.19 3027.31 2059.7 3025.48 2061.29 3023.2C2063.12 3020.93 2064.26 3018.08 2064.71 3014.66C2065.4 3011.01 2065.97 3006.91 2066.42 3002.35C2066.42 3000.53 2066.99 2999.05 2068.13 2997.91C2069.27 2996.77 2070.75 2996.2 2072.57 2996.2C2074.4 2996.2 2075.88 2996.88 2077.02 2998.25C2078.39 2999.62 2078.96 3001.21 2078.73 3003.04C2077.13 3027.19 2077.13 3051.35 2078.73 3075.51C2078.96 3077.33 2078.39 3078.92 2077.02 3080.29C2075.65 3081.66 2074.06 3082.34 2072.23 3082.34C2070.41 3082.34 2068.81 3081.77 2067.45 3080.63C2066.31 3079.49 2065.74 3078.01 2065.74 3076.19C2065.51 3073.68 2065.4 3071.06 2065.4 3068.33C2065.4 3065.36 2065.28 3062.97 2065.05 3061.15C2064.14 3049.75 2057.99 3043.94 2046.59 3043.71C2036.8 3043.26 2027 3043.03 2017.2 3043.03C2007.4 3043.03 1997.6 3043.03 1987.8 3043.03V3123.02C1987.8 3129.86 1990.08 3135.67 1994.64 3140.45C1999.42 3145.24 2005.23 3147.75 2012.07 3147.97C2020.73 3148.43 2029.39 3148.66 2038.05 3148.66C2046.94 3148.43 2055.71 3147.52 2064.37 3145.92C2077.82 3143.42 2086.36 3136.01 2090.01 3123.7C2090.46 3122.34 2091.03 3120.63 2091.72 3118.58C2092.4 3116.53 2093.08 3114.59 2093.77 3112.77C2094.22 3111.63 2095.02 3110.71 2096.16 3110.03C2097.53 3109.12 2099.01 3108.89 2100.61 3109.35C2103.57 3110.49 2104.82 3112.65 2104.37 3115.84C2103.91 3118.35 2103.45 3121.31 2103 3124.73C2102.77 3128.15 2102.54 3131.79 2102.31 3135.67C2101.86 3139.32 2101.63 3142.96 2101.63 3146.61C2101.86 3150.03 2102.09 3153.33 2102.31 3156.52C2102.31 3158.34 2101.63 3159.94 2100.26 3161.31C2099.12 3162.45 2097.64 3162.9 2095.82 3162.67C2078.5 3162.22 2061.18 3161.88 2043.86 3161.65C2026.77 3161.19 2009.68 3160.96 1992.58 3160.96C1981.42 3160.96 1970.37 3161.08 1959.43 3161.31C1948.49 3161.53 1937.55 3161.88 1926.61 3162.33C1924.79 3162.56 1923.19 3162.1 1921.82 3160.96C1920.69 3159.83 1920.12 3158.34 1920.12 3156.52C1920.12 3154.7 1920.69 3153.22 1921.82 3152.08C1922.96 3150.71 1924.45 3150.03 1926.27 3150.03H1933.45C1937.78 3149.57 1940.97 3148.54 1943.02 3146.95C1945.3 3145.35 1946.78 3143.42 1947.46 3141.14C1948.37 3138.63 1948.83 3135.78 1948.83 3132.59C1948.83 3129.4 1948.83 3126.1 1948.83 3122.68V3002.35C1948.83 2993.92 1948.83 2985.6 1948.83 2977.4C1948.83 2968.97 1948.94 2960.53 1949.17 2952.1C1949.17 2945.72 1947.69 2941.51 1944.73 2939.45C1941.77 2937.4 1938 2936.26 1933.45 2936.04C1932.31 2935.81 1931.05 2935.69 1929.69 2935.69C1928.55 2935.69 1927.41 2935.69 1926.27 2935.69C1924.45 2935.92 1922.96 2935.47 1921.82 2934.33C1920.69 2932.96 1920.12 2931.36 1920.12 2929.54ZM2264.14 3008.51C2267.1 2993.46 2272.34 2980.36 2279.86 2969.19C2287.38 2957.8 2296.39 2948.46 2306.87 2941.16C2317.58 2933.64 2329.54 2928.06 2342.76 2924.41C2355.98 2920.54 2369.77 2918.6 2384.12 2918.6C2394.15 2918.6 2404.29 2919.29 2414.55 2920.65C2421.38 2921.57 2428.11 2922.82 2434.72 2924.41C2441.55 2925.78 2448.27 2927.03 2454.88 2928.17C2456.93 2928.4 2458.07 2929.54 2458.3 2931.59C2459.44 2936.61 2460.47 2941.62 2461.38 2946.63C2462.52 2951.42 2463.77 2956.32 2465.14 2961.33C2465.59 2963.16 2466.05 2964.98 2466.51 2966.8C2467.19 2968.4 2467.76 2970.11 2468.22 2971.93C2468.9 2973.75 2468.79 2975.46 2467.87 2977.06C2467.19 2978.65 2465.94 2979.68 2464.11 2980.13C2460.69 2980.82 2458.19 2979.68 2456.59 2976.71C2449.98 2961.67 2441.32 2950.62 2430.61 2943.56C2419.9 2936.49 2406.34 2932.73 2389.93 2932.28C2368.74 2931.82 2350.85 2938.66 2336.27 2952.79C2328.06 2960.53 2321.34 2970.22 2316.1 2981.84C2310.86 2993.24 2307.21 3005.54 2305.16 3018.76C2303.11 3031.75 2302.65 3044.97 2303.79 3058.41C2305.16 3071.86 2308.01 3084.62 2312.34 3096.7C2316.9 3108.55 2323.05 3119.15 2330.8 3128.49C2338.55 3137.83 2348 3144.78 2359.17 3149.34C2368.06 3152.99 2377.4 3154.81 2387.2 3154.81C2397.91 3154.81 2406.91 3153.33 2414.21 3150.37C2421.73 3147.18 2429.13 3141.48 2436.42 3133.28C2437.79 3131.91 2439.39 3129.63 2441.21 3126.44C2443.26 3123.02 2445.31 3119.26 2447.36 3115.16C2449.64 3111.06 2451.81 3106.95 2453.86 3102.85C2455.91 3098.52 2457.5 3094.88 2458.64 3091.91C2459.78 3088.72 2462.06 3087.47 2465.48 3088.15C2467.3 3088.38 2468.79 3089.29 2469.92 3090.89C2471.06 3092.48 2471.41 3094.19 2470.95 3096.02C2469.81 3100.12 2468.44 3104.79 2466.85 3110.03C2465.25 3115.27 2463.66 3120.51 2462.06 3125.76C2460.69 3130.77 2459.33 3135.67 2457.96 3140.45C2456.59 3145.01 2455.57 3148.89 2454.88 3152.08C2454.43 3153.67 2452.04 3155.27 2447.71 3156.86C2443.38 3158.46 2438.48 3159.94 2433.01 3161.31C2427.76 3162.45 2422.64 3163.47 2417.62 3164.38C2412.84 3165.29 2409.65 3165.86 2408.05 3166.09C2401.22 3166.78 2394.26 3167.12 2387.2 3167.12C2377.17 3167.12 2367.83 3166.32 2359.17 3164.72C2353.02 3163.59 2346.52 3161.53 2339.68 3158.57C2332.85 3155.61 2326.24 3152.08 2319.86 3147.97C2313.48 3143.87 2307.55 3139.32 2302.08 3134.3C2296.61 3129.29 2292.06 3124.27 2288.41 3119.26C2276.56 3102.85 2268.47 3085.53 2264.14 3067.3C2260.04 3048.84 2260.04 3029.24 2264.14 3008.51ZM2620.47 2929.2C2620.47 2927.38 2621.16 2925.9 2622.52 2924.76C2623.89 2923.39 2625.49 2922.82 2627.31 2923.05C2634.37 2923.5 2641.44 2923.84 2648.5 2924.07C2655.57 2924.3 2662.75 2924.41 2670.04 2924.41C2677.1 2924.41 2684.17 2924.3 2691.23 2924.07C2698.3 2923.84 2705.36 2923.5 2712.43 2923.05C2714.25 2922.82 2715.84 2923.39 2717.21 2924.76C2718.58 2925.9 2719.26 2927.38 2719.26 2929.2C2719.26 2931.02 2718.58 2932.62 2717.21 2933.99C2716.07 2935.12 2714.59 2935.69 2712.77 2935.69H2702.85C2693.74 2936.38 2689.18 2941.28 2689.18 2950.39L2688.84 3122C2688.84 3128.83 2691.23 3134.76 2696.02 3139.77C2700.8 3144.56 2706.61 3147.06 2713.45 3147.29C2722.11 3147.52 2730.77 3147.63 2739.43 3147.63C2748.32 3147.41 2757.09 3146.49 2765.75 3144.9C2772.36 3143.76 2777.83 3141.48 2782.16 3138.06C2786.49 3134.42 2789.57 3129.29 2791.39 3122.68C2791.85 3121.54 2792.42 3119.94 2793.1 3117.89C2793.78 3115.61 2794.47 3113.68 2795.15 3112.08C2795.61 3110.71 2796.4 3109.69 2797.54 3109.01C2798.91 3108.32 2800.39 3108.21 2801.99 3108.66C2804.95 3109.35 2806.2 3111.51 2805.75 3115.16C2805.29 3117.67 2804.84 3120.63 2804.38 3124.05C2804.15 3127.24 2803.92 3130.77 2803.7 3134.64C2803.24 3138.29 2803.01 3141.94 2803.01 3145.58C2803.24 3149.23 2803.47 3152.65 2803.7 3155.84C2803.7 3157.66 2803.01 3159.14 2801.64 3160.28C2800.51 3161.42 2799.02 3161.99 2797.2 3161.99C2779.65 3161.53 2762.11 3161.08 2744.56 3160.62C2727.24 3160.17 2709.8 3159.94 2692.26 3159.94C2681.32 3159.94 2670.61 3160.05 2660.12 3160.28C2649.64 3160.51 2638.93 3160.85 2627.99 3161.31C2626.17 3161.53 2624.57 3161.08 2623.21 3159.94C2622.07 3158.8 2621.5 3157.32 2621.5 3155.5C2621.5 3153.67 2622.07 3152.19 2623.21 3151.05C2624.35 3149.68 2625.83 3149 2627.65 3149H2634.83C2639.39 3148.54 2643.15 3147.41 2646.11 3145.58C2649.07 3143.53 2650.55 3139.32 2650.55 3132.93L2650.21 2951.42C2650.21 2946.41 2649.07 2942.53 2646.79 2939.8C2644.74 2937.06 2640.98 2935.69 2635.51 2935.69H2626.97C2622.64 2935.69 2620.47 2933.53 2620.47 2929.2ZM2946.59 3149C2950.01 3148.54 2953.2 3148.2 2956.17 3147.97C2959.13 3147.52 2961.86 3146.72 2964.37 3145.58C2967.1 3144.21 2969.38 3142.51 2971.21 3140.45C2973.26 3138.18 2974.97 3135.1 2976.33 3131.22C2983.63 3110.71 2990.8 3090.43 2997.87 3070.38C3004.93 3050.1 3012.11 3029.81 3019.41 3009.53C3023.96 2996.77 3028.41 2984.01 3032.74 2971.25C3037.29 2958.26 3041.85 2945.38 3046.41 2932.62C3048.69 2926.24 3053.13 2923.05 3059.74 2923.05C3062.7 2923.05 3065.33 2923.96 3067.6 2925.78C3070.11 2927.38 3071.93 2929.66 3073.07 2932.62C3079 2949.71 3085.04 2966.8 3091.19 2983.89C3097.34 3000.76 3103.38 3017.62 3109.31 3034.49C3115.23 3050.89 3121.04 3067.19 3126.74 3083.37C3132.67 3099.55 3138.48 3115.84 3144.18 3132.25C3146 3137.72 3148.73 3141.82 3152.38 3144.56C3156.03 3147.29 3160.58 3148.89 3166.05 3149.34C3168.1 3149.57 3169.59 3150.48 3170.5 3152.08C3171.41 3153.44 3171.75 3154.93 3171.52 3156.52C3171.52 3157.89 3170.95 3159.26 3169.81 3160.62C3168.67 3161.76 3167.08 3162.22 3165.03 3161.99C3152.72 3161.31 3140.3 3160.96 3127.77 3160.96C3114.09 3160.96 3100.19 3161.31 3086.06 3161.99C3084.01 3162.22 3082.3 3161.65 3080.94 3160.28C3079.57 3158.69 3079 3156.98 3079.23 3155.15C3079.68 3151.74 3081.73 3149.8 3085.38 3149.34C3091.08 3148.89 3095.98 3147.75 3100.08 3145.92C3103.95 3144.33 3105.32 3141.59 3104.18 3137.72C3102.13 3129.74 3099.74 3121.88 3097 3114.13L3090.17 3095.67H3001.97L2992.74 3122.34C2992.06 3124.39 2991.37 3126.44 2990.69 3128.49C2990.24 3130.54 2989.78 3132.59 2989.32 3134.64C2988.18 3140.34 2990.35 3144.44 2995.82 3146.95C2996.96 3147.63 2998.55 3148.2 3000.6 3148.66C3002.88 3148.89 3005.05 3149.11 3007.1 3149.34C3008.92 3149.8 3010.29 3150.82 3011.2 3152.42C3012.34 3153.79 3012.68 3155.38 3012.23 3157.2C3011.54 3160.85 3009.26 3162.45 3005.39 3161.99C2995.82 3161.31 2986.25 3160.96 2976.68 3160.96C2967.33 3160.96 2957.65 3161.31 2947.62 3161.99C2945.57 3162.22 2943.97 3161.76 2942.83 3160.62C2941.69 3159.26 2941.01 3157.77 2940.78 3156.18C2940.78 3154.36 2941.24 3152.76 2942.15 3151.39C2943.06 3150.03 2944.54 3149.23 2946.59 3149ZM3006.07 3083.37H3085.72L3046.07 2971.59L3006.07 3083.37ZM3306.74 2969.88C3307.2 2967.37 3307.54 2964.41 3307.77 2960.99C3308.22 2957.57 3308.68 2953.93 3309.14 2950.05C3309.36 2946.63 3309.36 2943.1 3309.14 2939.45C3309.14 2935.81 3309.14 2932.39 3309.14 2929.2C3309.14 2927.38 3309.71 2925.9 3310.84 2924.76C3311.98 2923.62 3313.47 2923.05 3315.29 2923.05C3324.4 2923.27 3334.43 2923.5 3345.37 2923.73C3356.31 2923.96 3367.25 2924.19 3378.19 2924.41C3389.13 2924.64 3399.49 2924.76 3409.29 2924.76C3419.32 2924.76 3427.75 2924.76 3434.59 2924.76C3438.24 2924.76 3442.57 2924.76 3447.58 2924.76C3452.82 2924.76 3458.4 2924.76 3464.33 2924.76C3470.48 2924.53 3476.86 2924.41 3483.47 2924.41C3490.08 2924.19 3496.46 2923.96 3502.61 2923.73C3517.2 2923.5 3532.58 2923.27 3548.76 2923.05C3550.59 2923.05 3552.07 2923.62 3553.21 2924.76C3554.35 2925.9 3554.92 2927.38 3554.92 2929.2C3554.92 2936.26 3555.03 2943.1 3555.26 2949.71C3555.49 2956.32 3556.06 2963.04 3556.97 2969.88C3557.42 2971.25 3557.19 2972.61 3556.28 2973.98C3555.6 2975.12 3554.57 2975.92 3553.21 2976.37C3551.61 2976.83 3550.24 2976.6 3549.1 2975.69C3547.97 2974.55 3546.94 2973.18 3546.03 2971.59C3545.12 2969.99 3544.43 2968.28 3543.98 2966.46C3543.52 2964.64 3543.07 2963.27 3542.61 2962.36C3540.79 2955.75 3537.48 2950.62 3532.7 2946.98C3527.91 2943.33 3520.39 2940.59 3510.14 2938.77C3504.89 2937.86 3500.68 2937.4 3497.49 2937.4C3494.3 2937.18 3492.13 2937.18 3490.99 2937.4C3476.64 2937.86 3466.38 2940.48 3460.23 2945.27C3454.3 2949.82 3451.34 2955.41 3451.34 2962.02V3134.99C3451.34 3141.14 3452.93 3145.13 3456.13 3146.95C3459.54 3148.77 3463.87 3149.68 3469.11 3149.68H3474.93C3476.98 3149.68 3478.57 3150.37 3479.71 3151.74C3480.85 3153.1 3481.42 3154.58 3481.42 3156.18C3481.42 3157.77 3480.85 3159.26 3479.71 3160.62C3478.57 3161.99 3476.86 3162.56 3474.58 3162.33C3467.52 3161.88 3460.45 3161.53 3453.39 3161.31C3446.33 3161.08 3439.15 3160.96 3431.85 3160.96C3424.79 3160.96 3417.73 3161.08 3410.66 3161.31C3403.6 3161.53 3396.42 3161.88 3389.13 3162.33C3387.07 3162.56 3385.48 3161.99 3384.34 3160.62C3383.2 3159.26 3382.63 3157.77 3382.63 3156.18C3382.63 3154.58 3383.09 3153.1 3384 3151.74C3385.14 3150.37 3386.73 3149.68 3388.78 3149.68H3391.18C3393.91 3149.68 3396.53 3149.57 3399.04 3149.34C3401.77 3149.11 3404.05 3148.54 3405.88 3147.63C3407.93 3146.72 3409.52 3145.35 3410.66 3143.53C3411.8 3141.48 3412.37 3138.63 3412.37 3134.99L3412.71 2962.02C3412.71 2955.41 3409.64 2949.82 3403.48 2945.27C3397.56 2940.48 3387.42 2937.86 3373.06 2937.4C3371.92 2937.18 3369.75 2937.18 3366.56 2937.4C3363.37 2937.4 3359.16 2937.86 3353.92 2938.77C3343.66 2940.59 3336.03 2943.33 3331.01 2946.98C3326.23 2950.62 3322.92 2955.75 3321.1 2962.36C3320.87 2963.27 3320.53 2964.64 3320.07 2966.46C3319.62 2968.28 3318.93 2969.99 3318.02 2971.59C3317.11 2973.18 3316.09 2974.55 3314.95 2975.69C3313.81 2976.6 3312.44 2976.83 3310.84 2976.37C3309.48 2975.92 3308.34 2975.12 3307.43 2973.98C3306.74 2972.61 3306.51 2971.25 3306.74 2969.88ZM3705.22 2923.39C3712.51 2923.84 3719.69 2924.19 3726.76 2924.41C3733.82 2924.64 3740.88 2924.76 3747.95 2924.76C3755.24 2924.76 3762.42 2924.64 3769.48 2924.41C3776.55 2924.19 3783.61 2923.84 3790.68 2923.39C3792.5 2923.16 3793.98 2923.73 3795.12 2925.1C3796.49 2926.24 3797.17 2927.72 3797.17 2929.54C3797.17 2931.14 3796.6 2932.62 3795.46 2933.99C3794.55 2935.12 3793.19 2935.69 3791.36 2935.69C3788.86 2935.69 3786.35 2935.81 3783.84 2936.04C3781.34 2936.04 3778.83 2936.26 3776.32 2936.72C3772.45 2937.63 3769.94 2939.34 3768.8 2941.85C3767.66 2944.35 3767.09 2947.32 3767.09 2950.74V3031.07H3878.19V2952.1C3878.19 2948.46 3877.62 2945.27 3876.48 2942.53C3875.34 2939.57 3872.72 2937.63 3868.62 2936.72C3866.79 2936.49 3864.52 2936.38 3861.78 2936.38C3859.27 2936.15 3856.77 2935.92 3854.26 2935.69C3852.44 2935.69 3850.96 2935.12 3849.82 2933.99C3848.68 2932.85 3848.11 2931.36 3848.11 2929.54C3848.11 2927.72 3848.79 2926.24 3850.16 2925.1C3851.53 2923.73 3853.12 2923.16 3854.94 2923.39C3862.24 2923.84 3869.3 2924.19 3876.14 2924.41C3883.2 2924.64 3890.38 2924.76 3897.67 2924.76C3904.74 2924.76 3911.8 2924.64 3918.87 2924.41C3925.93 2924.19 3933.11 2923.84 3940.4 2923.39C3942.23 2923.16 3943.71 2923.73 3944.85 2925.1C3946.21 2926.24 3946.9 2927.72 3946.9 2929.54C3946.9 2931.14 3946.33 2932.62 3945.19 2933.99C3944.05 2935.12 3942.57 2935.69 3940.74 2935.69C3938.24 2935.69 3935.73 2935.81 3933.22 2936.04C3930.72 2936.04 3928.21 2936.26 3925.7 2936.72C3920.01 2938.09 3916.93 2941.96 3916.47 2948.34V3134.3C3916.47 3143.87 3921.03 3148.77 3930.15 3149C3931.97 3149.23 3933.57 3149.34 3934.93 3149.34C3936.53 3149.34 3938.24 3149.34 3940.06 3149.34C3942.11 3149.34 3943.59 3150.03 3944.51 3151.39C3945.64 3152.76 3946.21 3154.24 3946.21 3155.84C3946.21 3157.43 3945.64 3158.91 3944.51 3160.28C3943.37 3161.42 3941.77 3161.99 3939.72 3161.99C3932.65 3161.53 3925.59 3161.19 3918.53 3160.96C3911.46 3160.74 3904.4 3160.62 3897.33 3160.62C3890.27 3160.62 3883.2 3160.74 3876.14 3160.96C3869.3 3161.19 3862.24 3161.53 3854.94 3161.99C3853.12 3161.99 3851.53 3161.42 3850.16 3160.28C3848.79 3158.91 3848.11 3157.32 3848.11 3155.5C3848.11 3153.67 3848.68 3152.19 3849.82 3151.05C3851.18 3149.91 3852.78 3149.34 3854.6 3149.34H3863.15C3873.18 3149.11 3878.19 3143.76 3878.19 3133.28V3043.37H3767.09V3134.3C3767.09 3143.87 3771.65 3148.77 3780.77 3149C3782.36 3149.23 3783.96 3149.34 3785.55 3149.34C3787.15 3149.34 3788.86 3149.34 3790.68 3149.34C3792.73 3149.34 3794.21 3150.03 3795.12 3151.39C3796.26 3152.76 3796.83 3154.24 3796.83 3155.84C3796.83 3157.43 3796.26 3158.91 3795.12 3160.28C3793.98 3161.42 3792.39 3161.99 3790.34 3161.99C3783.27 3161.53 3776.21 3161.19 3769.14 3160.96C3762.08 3160.74 3755.01 3160.62 3747.95 3160.62C3740.88 3160.62 3733.82 3160.74 3726.76 3160.96C3719.92 3161.19 3712.85 3161.53 3705.56 3161.99C3703.74 3161.99 3702.14 3161.42 3700.78 3160.28C3699.41 3158.91 3698.72 3157.32 3698.72 3155.5C3698.72 3153.67 3699.29 3152.19 3700.43 3151.05C3701.8 3149.91 3703.4 3149.34 3705.22 3149.34H3713.77C3719.01 3149.11 3722.77 3147.75 3725.05 3145.24C3727.33 3142.51 3728.46 3138.52 3728.46 3133.28V2952.1C3728.46 2948.46 3727.89 2945.27 3726.76 2942.53C3725.84 2939.57 3723.22 2937.63 3718.89 2936.72C3717.3 2936.49 3715.13 2936.38 3712.4 2936.38C3709.89 2936.15 3707.38 2935.92 3704.88 2935.69C3703.05 2935.69 3701.57 2935.12 3700.43 2933.99C3699.29 2932.85 3698.72 2931.36 3698.72 2929.54C3698.72 2927.72 3699.29 2926.24 3700.43 2925.1C3701.8 2923.73 3703.4 2923.16 3705.22 2923.39ZM4090.61 3149C4094.03 3148.54 4097.22 3148.2 4100.18 3147.97C4103.14 3147.52 4105.88 3146.72 4108.39 3145.58C4111.12 3144.21 4113.4 3142.51 4115.22 3140.45C4117.27 3138.18 4118.98 3135.1 4120.35 3131.22C4127.64 3110.71 4134.82 3090.43 4141.89 3070.38C4148.95 3050.1 4156.13 3029.81 4163.42 3009.53C4167.98 2996.77 4172.42 2984.01 4176.75 2971.25C4181.31 2958.26 4185.87 2945.38 4190.43 2932.62C4192.71 2926.24 4197.15 2923.05 4203.76 2923.05C4206.72 2923.05 4209.34 2923.96 4211.62 2925.78C4214.13 2927.38 4215.95 2929.66 4217.09 2932.62C4223.02 2949.71 4229.05 2966.8 4235.21 2983.89C4241.36 3000.76 4247.4 3017.62 4253.32 3034.49C4259.25 3050.89 4265.06 3067.19 4270.76 3083.37C4276.68 3099.55 4282.49 3115.84 4288.19 3132.25C4290.02 3137.72 4292.75 3141.82 4296.4 3144.56C4300.04 3147.29 4304.6 3148.89 4310.07 3149.34C4312.12 3149.57 4313.6 3150.48 4314.51 3152.08C4315.43 3153.44 4315.77 3154.93 4315.54 3156.52C4315.54 3157.89 4314.97 3159.26 4313.83 3160.62C4312.69 3161.76 4311.1 3162.22 4309.04 3161.99C4296.74 3161.31 4284.32 3160.96 4271.78 3160.96C4258.11 3160.96 4244.21 3161.31 4230.08 3161.99C4228.03 3162.22 4226.32 3161.65 4224.95 3160.28C4223.59 3158.69 4223.02 3156.98 4223.24 3155.15C4223.7 3151.74 4225.75 3149.8 4229.4 3149.34C4235.09 3148.89 4239.99 3147.75 4244.1 3145.92C4247.97 3144.33 4249.34 3141.59 4248.2 3137.72C4246.15 3129.74 4243.75 3121.88 4241.02 3114.13L4234.18 3095.67H4145.99L4136.76 3122.34C4136.07 3124.39 4135.39 3126.44 4134.71 3128.49C4134.25 3130.54 4133.8 3132.59 4133.34 3134.64C4132.2 3140.34 4134.37 3144.44 4139.84 3146.95C4140.97 3147.63 4142.57 3148.2 4144.62 3148.66C4146.9 3148.89 4149.06 3149.11 4151.12 3149.34C4152.94 3149.8 4154.31 3150.82 4155.22 3152.42C4156.36 3153.79 4156.7 3155.38 4156.24 3157.2C4155.56 3160.85 4153.28 3162.45 4149.41 3161.99C4139.84 3161.31 4130.26 3160.96 4120.69 3160.96C4111.35 3160.96 4101.66 3161.31 4091.64 3161.99C4089.59 3162.22 4087.99 3161.76 4086.85 3160.62C4085.71 3159.26 4085.03 3157.77 4084.8 3156.18C4084.8 3154.36 4085.26 3152.76 4086.17 3151.39C4087.08 3150.03 4088.56 3149.23 4090.61 3149ZM4150.09 3083.37H4229.74L4190.09 2971.59L4150.09 3083.37ZM4451.44 2929.54C4451.44 2927.72 4452.01 2926.24 4453.15 2925.1C4454.52 2923.96 4456.11 2923.39 4457.94 2923.39C4465.23 2923.84 4472.52 2924.19 4479.82 2924.41C4487.11 2924.64 4494.4 2924.76 4501.69 2924.76C4508.99 2924.76 4516.16 2924.64 4523.23 2924.41C4530.52 2924.19 4537.81 2923.84 4545.11 2923.39C4546.93 2923.39 4548.41 2923.96 4549.55 2925.1C4550.92 2926.24 4551.6 2927.72 4551.6 2929.54C4551.6 2931.36 4551.03 2932.85 4549.89 2933.99C4548.75 2935.12 4547.39 2935.69 4545.79 2935.69C4543.06 2935.69 4540.32 2935.81 4537.59 2936.04C4534.85 2936.26 4532.23 2936.61 4529.72 2937.06C4525.85 2937.75 4523.11 2939.34 4521.52 2941.85C4519.92 2944.35 4519.13 2947.43 4519.13 2951.08C4519.35 2973.18 4519.35 2994.72 4519.13 3015.68C4519.13 3036.65 4519.24 3058.19 4519.47 3080.29C4519.47 3087.81 4519.92 3095.1 4520.84 3102.17C4521.98 3109.23 4524.03 3115.73 4526.99 3121.65C4529.95 3127.58 4534.05 3132.71 4539.29 3137.04C4544.54 3141.37 4551.37 3144.78 4559.81 3147.29C4567.1 3149.34 4574.39 3150.37 4581.68 3150.37C4591.48 3150.37 4601.17 3148.32 4610.74 3144.21C4618.71 3140.8 4624.87 3136.58 4629.2 3131.57C4633.76 3126.33 4637.06 3120.63 4639.11 3114.47C4641.39 3108.09 4642.76 3101.37 4643.21 3094.31C4643.67 3087.01 4643.9 3079.61 4643.9 3072.09L4644.24 2972.95V2951.08C4644.24 2947.43 4643.67 2944.7 4642.53 2942.87C4641.39 2940.82 4639.79 2939.34 4637.74 2938.43C4635.92 2937.29 4633.76 2936.61 4631.25 2936.38C4628.74 2935.92 4626.12 2935.69 4623.39 2935.69C4621.34 2935.69 4619.4 2935.35 4617.58 2934.67C4615.75 2933.99 4614.84 2932.28 4614.84 2929.54C4614.84 2927.72 4615.41 2926.24 4616.55 2925.1C4617.92 2923.96 4619.51 2923.39 4621.34 2923.39C4628.63 2923.84 4634.55 2924.19 4639.11 2924.41C4643.67 2924.64 4647.89 2924.76 4651.76 2924.76C4655.63 2924.76 4659.85 2924.64 4664.41 2924.41C4668.96 2924.19 4674.89 2923.84 4682.18 2923.39C4684.01 2923.39 4685.6 2923.96 4686.97 2925.1C4688.34 2926.24 4689.02 2927.72 4689.02 2929.54C4689.02 2931.36 4688.45 2932.85 4687.31 2933.99C4686.17 2935.12 4684.69 2935.69 4682.87 2935.69C4680.36 2935.69 4677.62 2935.81 4674.66 2936.04C4671.93 2936.26 4669.31 2936.61 4666.8 2937.06C4662.93 2937.75 4660.31 2939.23 4658.94 2941.51C4657.57 2943.56 4656.77 2946.41 4656.54 2950.05V3077.56C4656.54 3087.13 4655.75 3096.24 4654.15 3104.9C4652.78 3113.56 4650.16 3121.54 4646.29 3128.83C4642.64 3136.12 4637.52 3142.39 4630.91 3147.63C4624.3 3152.87 4615.75 3156.86 4605.27 3159.6C4597.75 3161.42 4590.11 3162.56 4582.37 3163.02C4574.85 3163.7 4567.21 3163.81 4559.46 3163.36C4549.44 3162.9 4539.75 3161.19 4530.41 3158.23C4521.06 3155.27 4512.75 3151.05 4505.45 3145.58C4498.39 3140.11 4492.58 3133.28 4488.02 3125.07C4483.69 3116.64 4481.52 3106.84 4481.52 3095.67C4481.07 3071.29 4480.84 3047.13 4480.84 3023.2C4480.84 2999.05 4480.84 2974.78 4480.84 2950.39C4480.84 2946.98 4480.27 2944.35 4479.13 2942.53C4477.99 2940.48 4476.4 2939 4474.35 2938.09C4472.52 2937.18 4470.36 2936.61 4467.85 2936.38C4465.34 2935.92 4462.72 2935.69 4459.99 2935.69C4457.94 2935.69 4456 2935.35 4454.18 2934.67C4452.35 2933.99 4451.44 2932.28 4451.44 2929.54ZM4838.27 3147.97C4838.72 3145.47 4839.18 3142.16 4839.64 3138.06C4840.09 3133.96 4840.32 3129.52 4840.32 3124.73C4840.32 3120.17 4840.09 3115.73 4839.64 3111.4C4839.41 3106.84 4839.07 3102.97 4838.61 3099.78C4838.15 3097.95 4838.5 3096.36 4839.64 3094.99C4841 3093.62 4842.6 3092.94 4844.42 3092.94C4847.16 3092.94 4848.98 3094.42 4849.89 3097.38C4851.49 3103.76 4853.31 3110.03 4855.36 3116.18C4857.41 3122.34 4860.15 3127.92 4863.56 3132.93C4866.98 3137.95 4871.2 3142.28 4876.21 3145.92C4881.45 3149.34 4887.83 3151.62 4895.35 3152.76C4901.28 3153.67 4907.09 3154.01 4912.79 3153.79C4918.49 3153.33 4924.07 3151.85 4929.54 3149.34C4935.01 3147.06 4939.57 3143.87 4943.21 3139.77C4947.09 3135.67 4949.82 3131.11 4951.42 3126.1C4953.24 3121.08 4953.92 3115.84 4953.47 3110.37C4953.24 3104.68 4951.76 3099.21 4949.02 3093.96C4946.52 3088.72 4943.33 3084.28 4939.45 3080.63C4935.58 3076.99 4931.36 3073.68 4926.8 3070.72C4919.28 3065.71 4911.65 3060.81 4903.9 3056.02C4896.38 3051.24 4888.86 3046.45 4881.34 3041.66C4876.1 3038.25 4871.08 3034.6 4866.3 3030.73C4861.51 3026.85 4857.07 3022.52 4852.97 3017.74C4843.4 3006.57 4838.84 2993.58 4839.29 2978.77C4839.52 2967.6 4841.57 2958.26 4845.45 2950.74C4849.55 2942.99 4854.79 2936.72 4861.17 2931.93C4867.78 2927.15 4875.3 2923.73 4883.73 2921.68C4892.39 2919.63 4901.28 2918.6 4910.4 2918.6C4916.32 2918.6 4922.13 2918.94 4927.83 2919.63C4934.44 2920.54 4941.16 2921.68 4948 2923.05C4954.83 2924.41 4961.56 2925.67 4968.17 2926.81C4970.22 2927.03 4971.36 2928.17 4971.58 2930.23C4972.72 2935.24 4973.75 2940.25 4974.66 2945.27C4975.8 2950.28 4977.05 2955.29 4978.42 2960.31C4978.88 2962.13 4979.33 2963.95 4979.79 2965.78C4980.47 2967.37 4981.04 2969.08 4981.5 2970.9C4982.18 2972.73 4982.07 2974.44 4981.16 2976.03C4980.24 2977.63 4978.88 2978.65 4977.05 2979.11C4973.86 2979.79 4971.47 2978.54 4969.88 2975.35C4966.68 2967.83 4962.58 2961.33 4957.57 2955.86C4952.56 2950.39 4947.09 2945.84 4941.16 2942.19C4935.46 2938.32 4929.54 2935.47 4923.39 2933.64C4917.23 2931.82 4911.19 2930.91 4905.27 2930.91C4900.25 2930.91 4895.47 2931.59 4890.91 2932.96C4886.58 2934.33 4882.71 2936.38 4879.29 2939.11C4875.87 2941.62 4873.14 2944.81 4871.08 2948.68C4869.03 2952.56 4867.89 2957.12 4867.67 2962.36C4867.44 2968.97 4868.69 2974.89 4871.43 2980.13C4874.16 2985.15 4877.92 2989.7 4882.71 2993.81C4887.72 2997.91 4892.85 3001.67 4898.09 3005.09C4903.56 3008.51 4909.03 3011.81 4914.5 3015C4921.79 3019.1 4928.85 3023.32 4935.69 3027.65C4942.76 3031.98 4949.59 3036.76 4956.2 3042.01C4962.35 3047.25 4967.71 3052.94 4972.27 3059.1C4977.05 3065.25 4980.36 3072.43 4982.18 3080.63C4984.46 3090.89 4984.92 3100.8 4983.55 3110.37C4982.18 3119.72 4978.19 3128.72 4971.58 3137.38C4966.8 3143.76 4961.22 3148.89 4954.83 3152.76C4948.68 3156.63 4941.96 3159.83 4934.67 3162.33C4927.15 3164.61 4919.51 3165.98 4911.76 3166.43C4904.24 3167.12 4896.49 3167.23 4888.52 3166.78C4876.9 3165.64 4867.1 3163.81 4859.12 3161.31C4851.14 3158.57 4845.33 3156.29 4841.69 3154.47C4838.95 3153.33 4837.81 3151.17 4838.27 3147.97ZM5016.2 3039.61H5142.68C5144.51 3039.61 5145.99 3040.18 5147.13 3041.32C5148.27 3042.46 5148.84 3043.94 5148.84 3045.77C5148.84 3047.59 5148.27 3049.07 5147.13 3050.21C5145.99 3051.35 5144.51 3051.92 5142.68 3051.92H5016.2C5014.38 3051.92 5012.9 3051.35 5011.76 3050.21C5010.62 3049.07 5010.05 3047.59 5010.05 3045.77C5010.05 3043.94 5010.62 3042.46 5011.76 3041.32C5012.9 3040.18 5014.38 3039.61 5016.2 3039.61Z" fill="#BDBD0D"/>
</svg>
